<svg width="41" height="40" viewBox="0 0 41 40" fill="none" xmlns="http://www.w3.org/2000/svg">
<path d="M38.9592 23.99L39.1092 24.11C39.4092 23.65 39.4892 23.32 39.5492 22.78C39.5792 22.7 39.6092 22.61 39.6392 22.53C39.7092 22.22 39.6392 22.01 39.5492 21.71L39.6692 21.56L39.6392 21.3C39.6725 21.24 39.7059 21.18 39.7392 21.12C39.8892 20.79 39.9692 20.48 39.9592 20.12C39.8525 19.92 39.7425 19.7533 39.6292 19.62C39.7292 19.4667 39.8492 19.3633 39.9892 19.31L40.0292 19.1L39.8792 18.98L39.9992 18.83L39.8492 18.71C39.8592 18.65 39.8792 18.59 39.8892 18.53C40.0692 17.51 39.7392 16.37 39.4892 15.38C39.4692 15.2467 39.4892 15.1067 39.5492 14.96C39.6192 14.65 39.5892 14.5 39.4892 14.2C39.4592 14.11 39.4292 14.02 39.3992 13.92C39.3692 13.83 39.3392 13.73 39.2992 13.64C39.2692 13.55 39.2392 13.45 39.2092 13.35C39.0559 12.8833 38.8925 12.5833 38.7192 12.45L38.8392 12.3C38.7392 12.09 38.6492 11.88 38.5492 11.67C38.5192 11.61 38.4992 11.55 38.4692 11.49C38.2792 11.1 38.0592 10.77 37.7992 10.41C37.7292 10.29 37.6692 10.18 37.6092 10.06C36.5692 8.09 34.9592 6.3 33.2692 4.86C33.2192 4.82 33.1692 4.77 33.1092 4.73C31.8092 3.62 30.2992 2.8 28.7692 2.05C28.3092 1.82 27.8692 1.57 27.4392 1.3L27.2692 1.52C27.1192 1.36 26.9592 1.2 26.8092 1.04C26.7492 1.07 26.6792 1.1 26.6192 1.13C26.4192 1.03 26.2292 0.92 26.0392 0.8C25.9592 0.85 25.8792 0.91 25.7892 0.97C25.5992 0.9 25.4092 0.84 25.2292 0.77C24.2792 0.46 23.2592 0.34 22.2692 0.18C22.1892 0.17 22.1092 0.16 22.0292 0.14C21.5892 0.0700003 21.1392 0.01 20.6892 0L20.5692 0.150001C20.4992 0.130001 20.4292 0.100001 20.3592 0.0800009C20.0392 8.79169e-07 19.7992 0.0200002 19.4792 0.0500002C19.0892 0.0800002 18.6992 0.11 18.3092 0.13C17.7192 0.16 17.1292 0.25 16.5592 0.39L16.4392 0.540001L16.2892 0.42C15.6892 0.51 15.0192 0.67 14.6392 1.17C14.5192 1.12 14.4092 1.07 14.2792 1.01L14.1092 1.23L14.4092 1.46C14.3292 1.51 14.2492 1.57 14.1592 1.63C14.0692 1.6 13.9692 1.56 13.8792 1.53C13.8192 1.6 13.7692 1.66 13.7092 1.73C13.3792 2.05 12.9792 2.21 12.5592 2.4C12.1692 2.59 11.7892 2.8 11.4192 3.02C11.2725 3.10667 11.1225 3.18333 10.9692 3.25C10.9192 3.28 10.8592 3.31 10.8092 3.34C10.7992 3.41 10.7792 3.48 10.7692 3.55L10.9192 3.67C11.0725 3.62333 11.2425 3.56 11.4292 3.48C11.6159 3.4 11.7092 3.36333 11.7092 3.37C11.8492 3.31 11.9992 3.25 12.1392 3.18C12.0392 3.24 11.9492 3.29 11.8492 3.35C9.11921 4.98 7.11921 7.11 5.13921 9.57L4.89921 9.26L5.12921 8.96L4.90921 8.79C4.97588 8.71667 5.03921 8.64 5.09921 8.56C5.29921 8.29 5.39921 8.11 5.44921 7.78C5.39921 7.7 5.33921 7.62 5.27921 7.53C5.04921 7.7 4.89921 7.86 4.74921 8.1C4.70921 8.17 4.66921 8.23 4.62921 8.3C4.58921 8.37 4.54921 8.44 4.49921 8.51C4.45921 8.57667 4.41588 8.64333 4.36921 8.71C4.10921 9.13 3.89921 9.56 3.70921 10.02L3.92921 10.19C3.85921 10.38 3.79921 10.56 3.72921 10.75C3.63921 10.76 3.55921 10.77 3.46921 10.78C3.36255 10.9067 3.26588 11.03 3.17921 11.15L3.47921 11.38C3.43921 11.48 3.39921 11.58 3.35921 11.69C3.04921 12.52 2.81921 13.32 2.68921 14.2C2.58921 14.84 2.41921 15.43 2.20921 16.04C1.94921 16.85 1.82921 17.6 1.78921 18.45C1.78921 18.55 1.77921 18.65 1.76921 18.75C1.73921 19.36 1.76921 19.93 1.86921 20.53C2.02921 20.58 2.18921 20.62 2.35921 20.67L2.23921 20.82L2.38921 20.94L2.26921 21.09C2.26921 21.09 2.27921 21.18 2.28921 21.22C2.19921 21.19 2.09921 21.15 2.00921 21.12C1.97921 21.73 1.97921 22.32 2.16921 22.91L2.31921 23.03L2.19921 23.18C2.32921 23.32 2.45921 23.46 2.58921 23.6C2.64921 23.57 2.71921 23.54 2.77921 23.51C2.79921 23.64 2.80921 23.77 2.82921 23.91L2.61921 23.87C2.46921 24.11 2.45921 24.22 2.50921 24.5C2.53921 24.6 2.56921 24.7 2.59921 24.81C2.61921 24.92 2.64921 25.02 2.66921 25.13C2.71588 25.3033 2.78921 25.43 2.88921 25.51C2.86921 25.57 2.85255 25.63 2.83921 25.69C2.79921 25.98 2.85921 26.11 2.97921 26.37C3.01921 26.45 3.05921 26.5333 3.09921 26.62C3.13921 26.7 3.17921 26.79 3.21921 26.88C3.25921 26.97 3.29921 27.05 3.33921 27.14C3.43921 27.35 3.53921 27.56 3.63921 27.78C3.58921 27.7 3.53921 27.63 3.48921 27.55C3.36921 27.3767 3.20921 27.2133 3.00921 27.06L2.77921 27.36C2.80921 27.42 2.83921 27.49 2.86921 27.55C2.74921 27.5 2.63921 27.45 2.50921 27.39L2.38921 27.54C2.55588 27.9133 2.69588 28.1433 2.80921 28.23L2.68921 28.38C2.65921 28.31 2.61921 28.24 2.58921 28.17C2.53921 28.08 2.49921 27.99 2.44921 27.9C2.40921 27.81 2.35921 27.72 2.31921 27.63C2.14921 27.36 1.97921 27.21 1.70921 27.03C1.68921 27.09 1.66921 27.14 1.63921 27.2C1.58588 27.3333 1.49255 27.4233 1.35921 27.47C1.29921 27.78 1.44921 27.91 1.60921 28.17C1.93921 28.7 2.23921 29.23 2.53921 29.78C2.58921 29.87 2.63921 29.96 2.68921 30.06C2.72921 30.13 2.76921 30.2 2.79921 30.27C2.95921 30.53 3.14921 30.75 3.34921 30.98C3.58921 31.27 3.80921 31.58 4.03921 31.89C4.39921 32.3767 4.67255 32.7267 4.85921 32.94L4.56921 33.31C4.78254 33.4367 4.99921 33.5667 5.21921 33.7L5.33921 33.55C5.37255 33.5967 5.40588 33.64 5.43921 33.68C5.58921 33.86 5.74921 34.01 5.92921 34.16C5.99921 34.22 6.05921 34.27 6.12921 34.33C6.19921 34.39 6.26921 34.45 6.33921 34.51C6.40921 34.57 6.47921 34.63 6.54921 34.69C6.71921 34.84 6.89921 34.99 7.06921 35.13C6.84921 35 6.63921 34.87 6.41921 34.74C6.38921 34.83 6.34921 34.93 6.31921 35.02C8.21921 36.54 9.54255 37.45 10.2892 37.75L10.4092 37.6C10.4492 37.65 10.4892 37.71 10.5292 37.76C11.8192 39.09 14.8692 39.25 16.5992 39.37C16.7092 39.37 16.8092 39.39 16.9192 39.39C17.5092 39.43 18.0692 39.41 18.6592 39.32C18.8992 39.29 19.1292 39.27 19.3692 39.27C20.1292 39.23 20.8692 39.07 21.6092 38.94C21.8092 38.9 21.9992 38.87 22.1992 38.84C22.2592 38.83 22.3292 38.82 22.3892 38.81C22.7292 38.75 23.0592 38.72 23.4092 38.72C24.1092 38.69 24.7692 38.42 25.4292 38.2C25.6792 38.11 25.9392 38.03 26.1892 37.95C26.3592 37.89 26.5292 37.84 26.7092 37.78C26.7892 37.75 26.8692 37.73 26.9492 37.7C27.8192 37.41 28.3392 37.05 28.8992 36.34C29.2692 35.88 29.6292 35.48 30.0992 35.11C30.3092 34.93 30.4492 34.73 30.5892 34.5C30.6392 34.42 30.6892 34.34 30.7392 34.26C30.8692 34.02 30.9392 33.8 31.0092 33.54L30.8592 33.42C30.8992 33.34 30.9392 33.25 30.9792 33.17C31.0325 32.9633 31.0225 32.7833 30.9492 32.63C30.9025 32.5633 30.8559 32.4933 30.8092 32.42C30.7825 32.28 30.7659 32.1467 30.7592 32.02C30.7292 31.96 30.6992 31.89 30.6692 31.83C30.6992 31.74 30.7392 31.64 30.7692 31.55C30.7092 31.4633 30.6459 31.38 30.5792 31.3C30.3292 30.96 30.3292 30.75 30.2792 30.34C30.0592 29.83 29.7592 29.44 29.2592 29.19C28.6792 29.01 28.1492 29.02 27.5492 29.1C27.4692 29.1133 27.3892 29.1233 27.3092 29.13C26.5292 29.25 25.8292 29.47 25.1092 29.78C25.0292 29.82 24.9392 29.85 24.8492 29.89C24.2592 30.17 23.7492 30.55 23.2192 30.93C23.1459 30.9833 23.0725 31.0367 22.9992 31.09C22.9292 31.14 22.8592 31.19 22.7892 31.24C22.7292 31.29 22.6692 31.33 22.5992 31.38C22.4192 31.54 22.2792 31.7 22.1392 31.9C22.1492 31.96 22.1592 32.02 22.1692 32.09C22.1959 32.2433 22.1425 32.3967 22.0092 32.55C21.5592 33.04 21.1592 33.47 20.5592 33.78C20.4792 33.83 20.3992 33.88 20.3192 33.94C20.1792 34.0267 19.9992 34.0533 19.7792 34.02C19.6459 34.1267 19.5259 34.23 19.4192 34.33L19.2692 34.21L19.1492 34.36L18.9992 34.24L18.8792 34.39C18.8192 34.38 18.7692 34.37 18.7092 34.35C18.4392 34.3 18.1692 34.27 17.8992 34.23C17.7992 34.22 17.6992 34.21 17.5992 34.2C17.5292 34.2 17.4492 34.18 17.3792 34.17L17.3592 34.04C17.4992 33.96 17.6492 33.87 17.7992 33.78C17.3992 33.63 17.0592 33.64 16.6392 33.68C16.4925 33.6933 16.3325 33.6633 16.1592 33.59L16.2792 33.44C16.4792 33.44 16.6792 33.44 16.8792 33.46C17.8592 33.5 18.3992 33.46 19.1592 32.81L19.2792 32.66C18.8792 32.45 18.5592 32.55 18.1392 32.63C17.1092 32.82 16.2792 32.75 15.2792 32.42L15.1592 32.57C15.1125 32.5433 15.0659 32.52 15.0192 32.5C14.7692 32.4 14.5292 32.35 14.2692 32.3C14.1792 32.28 14.0792 32.26 13.9892 32.25C13.9159 32.2367 13.8459 32.2233 13.7792 32.21L13.8992 32.06C13.3992 31.82 12.9092 31.59 12.3992 31.37C12.5992 31.41 12.8092 31.45 13.0192 31.49L13.0592 31.28C12.7392 31.09 12.4292 30.92 12.0892 30.77C11.6392 30.55 11.2292 30.27 10.8192 29.98C10.5592 29.8 10.2992 29.63 10.0192 29.49C9.46921 29.12 9.00921 28.55 8.74921 27.93L8.91921 27.71C8.79921 27.5 8.67921 27.29 8.54921 27.08C8.45921 26.92 8.36921 26.77 8.27921 26.61C7.92921 26 7.55921 25.41 7.16921 24.82C7.01588 24.6067 6.93255 24.3767 6.91921 24.13C6.85255 23.99 6.77255 23.8433 6.67921 23.69C6.62921 23.61 6.58921 23.53 6.53921 23.45C6.45255 23.3167 6.35921 23.2133 6.25921 23.14C6.28588 23.0867 6.31255 23.0367 6.33921 22.99C6.42921 22.75 6.39921 22.66 6.30921 22.42C6.17921 22.06 6.13921 21.73 6.09921 21.35C6.07921 21.21 6.06921 21.08 6.04921 20.94C6.04921 20.87 6.02921 20.8 6.01921 20.73L5.89921 19.76L5.98921 19.95C6.10921 20.05 6.23921 20.15 6.35921 20.24C6.48921 19.98 6.53921 19.77 6.55921 19.49C6.55921 19.41 6.56921 19.34 6.57921 19.26C6.57921 19.18 6.58921 19.1 6.59921 19.01C6.66921 18.12 6.75921 17.23 6.87921 16.34C6.88921 16.23 6.90921 16.13 6.91921 16.02C7.09921 14.8 7.54921 13.76 8.10921 12.67C8.18921 12.51 8.26921 12.35 8.34921 12.19C9.45921 10.08 11.2792 8.27 12.9892 6.64L13.1392 6.76C13.5992 6.49 13.9492 6.28 14.1592 5.76L14.3792 5.93L14.4992 5.78L14.3492 5.66C15.5792 4.88 16.8492 4.39 18.2392 3.96C18.4692 3.87 18.6192 3.79 18.7992 3.62C18.7125 3.56 18.5925 3.50667 18.4392 3.46C18.1892 3.52 17.9492 3.59 17.7092 3.67C17.6392 3.69 17.5792 3.71 17.5092 3.74C17.3492 3.79 17.1792 3.85 17.0192 3.91C17.5092 3.69 17.9692 3.51 18.4992 3.39L18.6192 3.24L18.7692 3.36C18.9492 3.32 19.1292 3.28 19.3092 3.23C19.6892 3.13 20.0492 3.06 20.4392 3.05C20.5592 3.05 20.6792 3.05 20.8092 3.04L20.9292 2.89C20.9825 2.90333 21.0392 2.91667 21.0992 2.93C21.5092 3 21.9092 2.99 22.3192 3C22.6392 3.01 22.9092 3.03 23.1992 3.18C23.4992 3.3 23.7992 3.3 24.1092 3.31C27.0192 3.54 30.0592 5.22 32.0992 7.27C32.1459 7.31667 32.1959 7.36667 32.2492 7.42C34.2592 9.42 35.7292 11.68 36.5892 14.39C36.6825 14.6767 36.7825 14.86 36.8892 14.94L36.7692 15.09C36.8359 15.4633 36.9325 15.6967 37.0592 15.79L36.9392 15.94L37.0892 16.06L36.9692 16.21C36.9825 16.3633 37.0059 16.53 37.0392 16.71C37.0525 16.7967 37.0692 16.8867 37.0892 16.98C37.1159 17.0533 37.1392 17.1267 37.1592 17.2C37.2492 17.23 37.3492 17.27 37.4392 17.3C37.4692 17.21 37.5092 17.11 37.5392 17.02C37.5392 17.27 37.5392 17.53 37.5392 17.78C37.5392 17.8533 37.5392 17.9267 37.5392 18C37.5392 18.26 37.5225 18.5167 37.4892 18.77L37.6392 18.89C37.6192 18.95 37.5992 19.02 37.5792 19.08C37.4792 19.47 37.4392 19.85 37.3992 20.24C37.2992 21.06 37.1292 21.82 36.8992 22.61C36.8792 22.69 36.8592 22.77 36.8392 22.86C36.6892 23.46 36.4392 24.01 36.1592 24.57C35.9725 24.95 35.9125 25.2533 35.9792 25.48L36.5192 24.94C36.0492 26.31 35.2092 27.7 34.3192 28.85C34.2292 28.86 34.1392 28.88 34.0392 28.89C33.8325 28.9567 33.6625 29.09 33.5292 29.29C33.4892 29.38 33.4492 29.48 33.3992 29.57C33.5992 29.7233 33.7659 29.8133 33.8992 29.84C34.1192 29.66 34.3092 29.45 34.5192 29.25C34.6592 29.1167 34.8159 29.0267 34.9892 28.98C35.3092 28.84 35.4492 28.68 35.6692 28.41C35.7392 28.32 35.8192 28.23 35.8892 28.14C35.9692 28.05 36.0392 27.95 36.1192 27.85C36.2692 27.66 36.4192 27.48 36.5692 27.29C36.6359 27.21 36.7025 27.1267 36.7692 27.04C36.8825 26.9 37.0225 26.7767 37.1892 26.67C37.2792 26.46 37.3392 26.24 37.4092 26.02C37.4559 25.8733 37.5659 25.7533 37.7392 25.66C37.1392 26.95 36.5392 28.22 35.7492 29.4C35.6225 29.5933 35.5259 29.7833 35.4592 29.97L35.6092 30.09C37.3992 28.79 38.2092 26.05 38.8792 24.03L38.9592 23.99ZM16.9392 34.34C16.7892 34.32 16.6392 34.3 16.4792 34.28C16.3992 34.27 16.3092 34.26 16.2192 34.25C15.9492 34.18 15.8092 34.08 15.5992 33.9C16.1392 33.87 16.6392 33.95 17.1592 34.04L16.9292 34.34H16.9392ZM11.6392 37.63C11.3525 37.55 11.1092 37.4 10.9092 37.18C11.1692 37.3 11.4292 37.43 11.6992 37.55L11.6392 37.62V37.63ZM7.13921 25.89C7.04921 25.86 6.94921 25.82 6.85921 25.79L6.73921 25.94C6.54921 25.72 6.48921 25.59 6.38921 25.31L6.53921 25.43C6.50921 25.01 6.39921 24.7 6.19921 24.33C6.39921 24.3767 6.53921 24.4933 6.61921 24.68C6.66921 24.78 6.70921 24.88 6.75921 24.99C6.80921 25.09 6.84921 25.19 6.89921 25.3C6.98588 25.4867 7.06255 25.6867 7.12921 25.9L7.13921 25.89ZM3.94921 28.31L3.76921 27.93C3.84921 28.03 3.92921 28.13 4.00921 28.24L3.94921 28.31ZM6.25921 24.26C5.81921 23.53 5.35921 22.71 5.47921 21.83C5.49921 21.78 5.50921 21.72 5.52921 21.66L5.37921 21.54C5.40921 21.45 5.44921 21.35 5.47921 21.26C5.66921 21.6 5.72921 21.94 5.80921 22.32C5.92921 22.89 6.07921 23.44 6.25921 23.99C6.27921 24.06 6.29921 24.12 6.31921 24.19L6.25921 24.26ZM3.50921 26.42C3.38921 26.2133 3.27255 26.0033 3.15921 25.79C3.23921 25.74 3.31921 25.68 3.40921 25.62L3.28921 25.77C3.32921 25.84 3.37921 25.91 3.41921 25.98C3.51921 26.1267 3.54588 26.2733 3.49921 26.42H3.50921ZM5.47921 21.26C5.44588 21.1533 5.40921 21.0467 5.36921 20.94C5.42921 20.91 5.49921 20.88 5.55921 20.85C5.52921 20.99 5.50921 21.12 5.47921 21.26ZM5.99921 19.52L5.81921 19.14C5.89921 19.09 5.97921 19.03 6.06921 18.97C6.04921 19.15 6.02921 19.33 5.99921 19.52ZM2.45921 21.78L2.42921 21.52L2.57921 21.64L2.45921 21.79V21.78ZM5.58921 17.28L5.43921 17.16C5.50921 16.97 5.56921 16.79 5.63921 16.6C5.66921 16.78 5.68921 16.95 5.70921 17.13L5.58921 17.28ZM13.8792 2.47C13.8092 2.46 13.7392 2.44 13.6692 2.43C13.7992 2.37 13.9192 2.31 14.0492 2.25L13.8792 2.47ZM13.1792 2.76C13.1092 2.75 13.0392 2.73 12.9692 2.72C13.0992 2.66 13.2192 2.6 13.3492 2.54L13.1792 2.76ZM7.95921 7.78L7.74921 7.74C8.02255 7.44 8.29921 7.13667 8.57921 6.83L8.64921 6.89L7.95921 7.78ZM4.13921 11.62L3.98921 11.5C4.08921 11.22 4.18921 10.94 4.28921 10.66C4.37921 10.69 4.47921 10.73 4.56921 10.76C4.42921 11.04 4.28921 11.33 4.13921 11.62Z" fill="black"/>
<path d="M38.9604 23.99L39.1104 24.11C39.4104 23.65 39.4904 23.32 39.5504 22.78C39.5804 22.7 39.6104 22.61 39.6404 22.53C39.7104 22.22 39.6404 22.01 39.5504 21.71L39.6704 21.56L39.6404 21.3C39.6704 21.24 39.7104 21.18 39.7404 21.12C39.8904 20.79 39.9704 20.48 39.9604 20.12C39.8537 19.92 39.7437 19.7533 39.6304 19.62C39.7304 19.4667 39.8504 19.3633 39.9904 19.31L40.0304 19.1L39.8804 18.98L40.0004 18.83L39.8504 18.71C39.8604 18.65 39.8804 18.59 39.8904 18.53C40.0704 17.51 39.7404 16.37 39.4904 15.38C39.4704 15.2467 39.4904 15.1067 39.5504 14.96C39.6204 14.65 39.5904 14.5 39.4904 14.2C39.4604 14.11 39.4304 14.02 39.4004 13.92C39.3704 13.83 39.3404 13.73 39.3004 13.64C39.2704 13.55 39.2404 13.45 39.2104 13.35C39.0571 12.8833 38.8937 12.5833 38.7204 12.45L38.8404 12.3C38.7404 12.09 38.6504 11.88 38.5504 11.67C38.5204 11.61 38.5004 11.55 38.4704 11.49C38.2804 11.1 38.0604 10.77 37.8004 10.41C37.7304 10.29 37.6704 10.18 37.6104 10.06C36.5704 8.09 34.9604 6.3 33.2704 4.86C33.2204 4.82 33.1704 4.77 33.1104 4.73C31.8104 3.62 30.3004 2.8 28.7704 2.05C28.3104 1.82 27.8704 1.57 27.4404 1.3L27.2704 1.52C27.1204 1.36 26.9604 1.2 26.8104 1.04C26.7504 1.07 26.6804 1.1 26.6204 1.13C26.4204 1.03 26.2304 0.92 26.0404 0.8C25.9604 0.85 25.8804 0.91 25.7904 0.97C25.6004 0.9 25.4104 0.84 25.2304 0.77C24.2804 0.46 23.2604 0.34 22.2704 0.18C22.1904 0.17 22.1104 0.16 22.0304 0.14C21.5904 0.0700003 21.1404 0.01 20.6904 0L20.5704 0.150001C20.5004 0.130001 20.4304 0.100001 20.3604 0.0800009C20.0404 8.79169e-07 19.8004 0.0200002 19.4804 0.0500002C19.0904 0.0800002 18.7004 0.11 18.3104 0.13C17.7204 0.16 17.1304 0.25 16.5604 0.39L16.4404 0.540001L16.2904 0.42C15.6904 0.51 15.0204 0.67 14.6404 1.17C14.5204 1.12 14.4104 1.07 14.2804 1.01L14.1104 1.23L14.4104 1.46C14.3304 1.51 14.2504 1.57 14.1604 1.63C14.0704 1.6 13.9704 1.56 13.8804 1.53C13.8271 1.59667 13.7704 1.66333 13.7104 1.73C13.3804 2.05 12.9804 2.21 12.5604 2.4C12.1704 2.59 11.7904 2.8 11.4204 3.02C11.2737 3.10667 11.1237 3.18333 10.9704 3.25C10.9204 3.28 10.8604 3.31 10.8104 3.34C10.8004 3.41 10.7804 3.48 10.7704 3.55L10.9204 3.67C11.0737 3.62333 11.2437 3.56 11.4304 3.48C11.5204 3.44 11.6104 3.41 11.7104 3.37C11.8504 3.31 12.0004 3.25 12.1404 3.18C12.0404 3.24 11.9504 3.29 11.8504 3.35C10.0604 4.42 8.15039 5.76 6.90039 7.47C7.13039 7.65 7.26039 7.68 7.54039 7.73C7.54039 7.84 7.52039 7.95 7.52039 8.07C7.72039 7.92 7.85039 7.8 8.00039 7.61L8.09039 7.8C8.09039 7.8 8.16039 7.72 8.20039 7.67C8.36039 7.48 8.52039 7.29 8.69039 7.09C8.74372 7.02333 8.80039 6.95667 8.86039 6.89C8.91039 6.83 8.97039 6.76 9.02039 6.7C9.07039 6.64 9.12039 6.58 9.17039 6.52C9.34039 6.36 9.49039 6.28 9.71039 6.19C9.91039 6.02 10.0704 5.85 10.2504 5.65C10.2404 5.56 10.2304 5.48 10.2204 5.39C10.3404 5.44 10.4504 5.49 10.5804 5.55C10.6204 5.49 10.6604 5.43 10.7004 5.38C10.8704 5.18 11.0004 5.1 11.2504 5L11.0804 5.22C10.9671 5.36667 10.8971 5.51 10.8704 5.65C10.7171 5.77667 10.5671 5.81667 10.4204 5.77L10.3004 5.92C10.2304 5.91 10.1604 5.89 10.0904 5.88L9.92039 6.1L10.0704 6.22C9.99039 6.27 9.91039 6.33 9.82039 6.39C9.79039 6.48 9.75039 6.58 9.72039 6.67C9.84039 6.72 9.95039 6.77 10.0804 6.83C10.1504 6.69 10.2204 6.55 10.2904 6.4L10.6604 6.69C10.7404 6.64 10.8204 6.58 10.9104 6.52C10.9804 6.54 11.0404 6.55 11.1104 6.57C11.2504 6.59 11.3904 6.55 11.5304 6.45C11.5804 6.4 11.6304 6.34 11.6904 6.29C11.8304 6.41 11.9604 6.55 12.0804 6.71C12.0604 6.89 12.0137 7.05333 11.9404 7.2C12.0304 7.19 12.1104 7.18 12.2004 7.17C12.1304 7.31 12.0604 7.45 11.9904 7.6L12.0604 7.66C12.4004 7.33 12.7304 7 13.0804 6.66L13.2304 6.78C13.6904 6.51 14.0404 6.3 14.2504 5.78L14.4704 5.95L14.5904 5.8L14.4404 5.68C15.6704 4.9 16.9404 4.41 18.3304 3.98C18.5604 3.89 18.7104 3.81 18.8904 3.64C18.8037 3.58 18.6837 3.52667 18.5304 3.48C18.2804 3.54 18.0404 3.61 17.8004 3.69C17.7304 3.71 17.6704 3.73 17.6004 3.76C17.4404 3.81 17.2704 3.87 17.1104 3.93C17.6004 3.71 18.0604 3.53 18.5904 3.41L18.7104 3.26L18.8604 3.38C19.0404 3.34 19.2204 3.3 19.4004 3.25C19.7804 3.15 20.1404 3.08 20.5304 3.07C20.6504 3.07 20.7704 3.07 20.9004 3.06L21.0204 2.91C21.0737 2.92333 21.1304 2.93667 21.1904 2.95C21.6004 3.02 22.0004 3.01 22.4104 3.02C22.7304 3.03 23.0004 3.05 23.2904 3.2C23.5904 3.32 23.8904 3.32 24.2004 3.33C27.1104 3.56 30.1504 5.24 32.1904 7.29C32.2371 7.33667 32.2871 7.38667 32.3404 7.44C34.3504 9.44 35.8204 11.7 36.6804 14.41C36.7737 14.6967 36.8737 14.88 36.9804 14.96L36.8604 15.11C36.9271 15.4833 37.0237 15.7167 37.1504 15.81L37.0304 15.96L37.1804 16.08L37.0604 16.23C37.0737 16.3833 37.0971 16.55 37.1304 16.73C37.1637 16.91 37.1804 17 37.1804 17C37.1804 17 37.2037 17.0733 37.2504 17.22C37.3404 17.25 37.4404 17.29 37.5304 17.32C37.5604 17.23 37.6004 17.13 37.6304 17.04C37.6304 17.29 37.6304 17.55 37.6304 17.8C37.6304 17.87 37.6304 17.94 37.6304 18.02C37.6304 18.28 37.6137 18.5367 37.5804 18.79L37.7304 18.91C37.7104 18.97 37.6904 19.04 37.6704 19.1C37.5704 19.49 37.5304 19.87 37.4904 20.26C37.3904 21.08 37.2204 21.84 36.9904 22.63C36.9704 22.71 36.9504 22.79 36.9304 22.88C36.7804 23.48 36.5304 24.03 36.2504 24.59C36.0637 24.97 36.0037 25.2733 36.0704 25.5L36.6104 24.96C36.1404 26.33 35.3004 27.72 34.4104 28.87C34.3204 28.88 34.2304 28.9 34.1304 28.91C33.9237 28.9767 33.7537 29.11 33.6204 29.31C33.5804 29.4 33.5404 29.5 33.4904 29.59C33.6904 29.7433 33.8571 29.8333 33.9904 29.86C34.2104 29.68 34.4004 29.47 34.6104 29.27C34.7504 29.1367 34.9071 29.0467 35.0804 29C35.4004 28.86 35.5404 28.7 35.7604 28.43C35.8304 28.34 35.9104 28.25 35.9804 28.16C36.0604 28.07 36.1304 27.97 36.2104 27.87C36.3604 27.68 36.5104 27.5 36.6604 27.31C36.7271 27.23 36.7937 27.1467 36.8604 27.06C36.9737 26.92 37.1137 26.7967 37.2804 26.69C37.3704 26.48 37.4304 26.26 37.5004 26.04C37.5471 25.8933 37.6571 25.7733 37.8304 25.68C37.2304 26.97 36.6304 28.24 35.8404 29.42C35.7137 29.6133 35.6171 29.8033 35.5504 29.99L35.7004 30.11C37.4904 28.81 38.3004 26.07 38.9704 24.05L38.9604 23.99ZM13.8804 2.47C13.8104 2.46 13.7404 2.44 13.6704 2.43C13.8004 2.37 13.9204 2.31 14.0504 2.25L13.8804 2.47ZM13.1804 2.76C13.1104 2.75 13.0404 2.73 12.9704 2.72C13.1004 2.66 13.2204 2.6 13.3504 2.54L13.1804 2.76Z" fill="black"/>
<path d="M38.9605 23.9938L39.1105 24.1138C39.4105 23.6538 39.4905 23.3237 39.5505 22.7837C39.5805 22.7037 39.6105 22.6137 39.6405 22.5337C39.7105 22.2237 39.6405 22.0137 39.5505 21.7137L39.6705 21.5638L39.6405 21.3037C39.6705 21.2437 39.7105 21.1837 39.7405 21.1237C39.8905 20.7937 39.9705 20.4837 39.9605 20.1237C39.8605 19.9504 39.7505 19.7838 39.6305 19.6238C39.5105 19.4638 39.4871 19.2871 39.5605 19.0938C39.4905 19.1438 39.4205 19.2037 39.3405 19.2537C38.9405 19.4937 38.6505 19.4938 38.1905 19.4638C38.0805 19.5038 37.9805 19.5337 37.8705 19.5737C37.7905 19.4737 37.7105 19.3704 37.6305 19.2638C37.6305 19.3338 37.6105 19.3938 37.6005 19.4638C37.4705 20.2838 37.3205 21.0938 37.1505 21.9038C37.1205 22.0638 37.0905 22.2237 37.0605 22.3737C36.9205 23.1037 36.6105 23.7437 36.2905 24.4137C36.2505 24.4937 36.2205 24.5637 36.1805 24.6437C36.1505 24.7137 36.1105 24.7838 36.0805 24.8538C36.0005 25.0738 36.0205 25.2237 36.0605 25.4437L36.6005 24.9038C36.1305 26.2738 35.2905 27.6638 34.4005 28.8138C34.3105 28.8238 34.2205 28.8438 34.1205 28.8538C33.9138 28.9204 33.7438 29.0537 33.6105 29.2537C33.5705 29.3437 33.5305 29.4437 33.4805 29.5337C33.6805 29.6871 33.8471 29.7771 33.9805 29.8037C34.2005 29.6237 34.3905 29.4137 34.6005 29.2137C34.7405 29.0804 34.8971 28.9904 35.0705 28.9437C35.3905 28.8037 35.5305 28.6437 35.7505 28.3737C35.8205 28.2837 35.9005 28.1938 35.9705 28.1038C36.0505 28.0138 36.1205 27.9138 36.2005 27.8138C36.3505 27.6238 36.5005 27.4437 36.6505 27.2537C36.7171 27.1737 36.7838 27.0904 36.8505 27.0037C36.9638 26.8637 37.1038 26.7404 37.2705 26.6338C37.3605 26.4238 37.4205 26.2037 37.4905 25.9837C37.5371 25.8371 37.6471 25.7171 37.8205 25.6237C37.2205 26.9137 36.6205 28.1838 35.8305 29.3638C35.7038 29.5571 35.6071 29.7471 35.5405 29.9338L35.6905 30.0537C37.4805 28.7537 38.2905 26.0138 38.9605 23.9938Z" fill="black"/>
<path d="M7.97953 26.1934C7.89953 25.7134 7.62953 25.3834 7.35953 24.9934C7.1462 24.7201 7.01953 24.4234 6.97953 24.1034C6.91286 23.9634 6.83286 23.8168 6.73953 23.6634C6.68953 23.5834 6.64953 23.5034 6.59953 23.4234C6.51286 23.2901 6.41953 23.1868 6.31953 23.1134C6.34953 23.0634 6.37953 23.0134 6.39953 22.9634C6.48953 22.7234 6.45953 22.6334 6.36953 22.3934C6.23953 22.0334 6.19953 21.7034 6.15953 21.3234C6.13953 21.1834 6.12953 21.0534 6.10953 20.9134L6.07953 20.7034L5.95953 19.7334C5.98953 19.7934 6.01953 19.8634 6.04953 19.9234C6.16953 20.0234 6.29953 20.1234 6.41953 20.2134C6.54953 19.9534 6.59953 19.7434 6.61953 19.4534C6.61953 19.3734 6.62953 19.3034 6.63953 19.2234C6.63953 19.1434 6.64953 19.0634 6.65953 18.9734C6.66953 18.8034 6.68953 18.6334 6.69953 18.4634C6.69953 18.3834 6.70953 18.2934 6.71953 18.2034C6.76953 17.6434 6.82953 17.0834 6.89953 16.5234C6.65286 16.6301 6.4862 16.7401 6.39953 16.8534C6.13953 16.9834 5.98953 16.8934 5.71953 16.8034C5.65953 16.9034 5.58953 17.0034 5.52953 17.1134C5.4962 17.1734 5.45953 17.2301 5.41953 17.2834C5.37953 17.3368 5.34286 17.5101 5.30953 17.8034L5.45953 17.9234C5.43953 17.9934 5.41953 18.0534 5.38953 18.1234C5.30953 18.4434 5.28953 18.7434 5.27953 19.0734C5.27953 19.1834 5.27953 19.3034 5.26953 19.4134C5.26953 19.5034 5.26953 19.5934 5.27953 19.6834L5.42953 19.8034C5.39953 19.8934 5.35953 19.9934 5.32953 20.0834C5.34953 20.2301 5.3762 20.3868 5.40953 20.5534C5.46953 20.8334 5.51953 21.1034 5.55953 21.3934C5.76953 23.0134 6.29953 24.4234 7.05953 25.8534C6.98953 25.8434 6.91953 25.8234 6.84953 25.8134L6.67953 26.0334C6.79953 26.0834 6.90953 26.1334 7.03953 26.1934C6.90953 26.4134 6.77953 26.6234 6.64953 26.8434L7.09953 27.1934C7.14953 27.0734 7.19953 26.9634 7.25953 26.8334C7.21286 26.7934 7.16953 26.7534 7.12953 26.7134C7.08953 26.6534 7.05953 26.5934 7.01953 26.5234C7.07286 26.3234 7.13953 26.1368 7.21953 25.9634C7.30953 25.9934 7.39953 26.0234 7.48953 26.0634C7.68286 26.1301 7.84953 26.1768 7.98953 26.2034L7.97953 26.1934ZM5.99953 19.5234L5.81953 19.1434C5.89953 19.0934 5.97953 19.0334 6.06953 18.9734C6.04953 19.1534 6.02953 19.3334 5.99953 19.5234ZM6.53953 26.9834L6.57953 26.7734L6.38953 26.8634L6.53953 26.9834Z" fill="black"/>
<path d="M6.43031 20.2056C6.56031 19.9456 6.61031 19.7356 6.63031 19.4456C6.63031 19.3656 6.63698 19.289 6.65031 19.2156C6.65031 19.1356 6.66031 19.0556 6.67031 18.9656C6.68031 18.7956 6.70031 18.6256 6.71031 18.4556C6.71031 18.3756 6.72031 18.2856 6.73031 18.1956C6.78031 17.6356 6.84031 17.0756 6.91031 16.5156C6.66365 16.6223 6.49698 16.7323 6.41031 16.8456C6.15031 16.9756 6.00031 16.8856 5.73031 16.7956C5.67031 16.8956 5.60031 16.9956 5.54031 17.1056C5.50031 17.1656 5.47031 17.2156 5.43031 17.2756C5.37031 17.3956 5.33365 17.569 5.32031 17.7956L5.47031 17.9156C5.45031 17.9856 5.42031 18.0456 5.40031 18.1156C5.28031 18.6256 5.33031 19.1556 5.42031 19.6756L5.57031 19.7956C5.81031 19.6456 5.87031 19.5656 5.97031 19.2956C5.99031 19.2156 6.00031 19.1456 6.02031 19.0656C6.02031 19.1256 6.02031 19.1856 6.02031 19.2456C6.02031 19.679 6.09698 19.9756 6.25031 20.1356C6.31031 20.1656 6.37031 20.1956 6.43031 20.2256V20.2056Z" fill="black"/>
<path d="M1.60977 23.6331L1.87977 23.1331L1.72976 23.0131C1.73976 22.9331 1.74977 22.8431 1.75977 22.7631C1.78977 22.4631 1.76977 22.2931 1.66977 22.0131L1.51977 21.8931L1.63977 21.7431L1.48977 21.6231L1.60977 21.4731L1.45977 21.3531L1.57977 21.2031L1.42977 21.0831L1.54977 20.9331L1.39977 20.8131C1.41977 20.7531 1.42977 20.6931 1.44977 20.6431C1.48977 20.3631 1.43977 20.1731 1.36977 19.8931C1.14977 18.7631 1.25977 17.4931 1.51977 16.3731L1.29977 16.2031C0.869767 16.9931 0.899765 17.9531 0.829765 18.8231C0.816432 19.0298 0.793099 19.2098 0.759766 19.3631L0.909765 19.4831C0.876432 19.5765 0.843098 19.6698 0.809765 19.7631C0.776432 19.8565 0.799766 20.0331 0.879766 20.2931L1.02977 20.4131L0.949766 20.8231L1.09977 20.9431L0.979765 21.0931C0.999765 21.2331 1.02643 21.3865 1.05976 21.5531C1.11976 21.8431 1.16977 22.1331 1.20977 22.4231C1.24977 22.7831 1.30977 23.1131 1.40977 23.4531L1.62977 23.6231L1.60977 23.6331Z" fill="black"/>
<path d="M38.8991 24.0647L38.7091 24.1547C38.6191 24.1247 38.5191 24.0847 38.4291 24.0547C38.2891 24.1847 38.1491 24.3147 38.0091 24.4447C38.0624 24.5247 38.1191 24.608 38.1791 24.6947C38.0991 25.0647 37.8091 25.2647 37.5391 25.5147C37.6291 25.5447 37.7291 25.5847 37.8191 25.6147C37.2191 26.9047 36.6191 28.1747 35.8291 29.3547C35.7024 29.548 35.6057 29.738 35.5391 29.9247L35.6891 30.0447C37.4591 28.7647 38.2791 26.0447 38.9091 24.0647H38.8991Z" fill="black"/>
<path d="M37.1588 26.7759C37.2688 26.5859 37.3788 26.3959 37.4888 26.1959C37.4088 26.2459 37.3288 26.3059 37.2388 26.3659L37.0888 26.2459L36.4487 27.0659C36.3421 26.9459 36.2388 26.8259 36.1388 26.7059C36.1588 26.4859 36.1988 26.2793 36.2588 26.0859C35.9588 26.2859 35.8488 26.4859 35.6588 26.7859C35.6254 26.8393 35.5921 26.8926 35.5588 26.9459C35.4488 27.1159 35.3488 27.2859 35.2488 27.4559C35.1488 27.6259 35.0388 27.7959 34.9288 27.9659C34.8288 28.1159 34.7388 28.2759 34.6488 28.4259C34.5554 28.5793 34.4688 28.7059 34.3888 28.8059C34.2988 28.8159 34.2087 28.8359 34.1087 28.8459C33.9021 28.9126 33.7321 29.0459 33.5988 29.2459C33.5588 29.3359 33.5188 29.4359 33.4688 29.5259C33.6688 29.6793 33.8354 29.7693 33.9688 29.7959C34.1887 29.6159 34.3788 29.4059 34.5888 29.2059C34.7288 29.0726 34.8854 28.9826 35.0588 28.9359C35.3888 28.7959 35.5188 28.6359 35.7388 28.3559C35.8088 28.2659 35.8888 28.1759 35.9588 28.0859C36.0388 27.9959 36.1088 27.8959 36.1888 27.7959C36.3388 27.6059 36.4988 27.4159 36.6488 27.2359C36.7154 27.1493 36.7821 27.0659 36.8488 26.9859C36.9154 26.9059 37.0121 26.8393 37.1388 26.7859L37.1588 26.7759Z" fill="black"/>
<path d="M18.6902 3.8117L18.8602 3.5917C18.6502 3.4817 18.5402 3.4317 18.3002 3.4617C18.2268 3.4817 18.1535 3.50503 18.0802 3.5317C18.0002 3.5517 17.9202 3.5817 17.8402 3.6017C17.7602 3.6317 17.6702 3.6517 17.5902 3.6817C17.5102 3.70837 17.4268 3.7317 17.3402 3.7517C16.7902 3.9217 16.3002 4.1517 15.8002 4.4417L15.6502 4.3217C15.2302 4.7417 14.9368 5.06837 14.7702 5.3017C14.7402 5.2517 14.7002 5.2017 14.6702 5.1417C14.6235 5.09503 14.5768 5.04503 14.5302 4.9917C14.2702 5.0217 14.1102 5.0917 13.8802 5.2117L13.9502 5.2717C13.8802 5.4117 13.8102 5.5517 13.7402 5.7017L13.5902 5.5817C13.3502 5.77503 13.2135 5.94837 13.1802 6.1017L13.0302 5.9817C13.0035 6.0617 12.9802 6.14503 12.9602 6.2317C12.8302 6.5617 12.6602 6.7917 12.4302 7.0717C12.3302 6.9517 12.2202 6.8317 12.1202 6.7117C12.0502 6.8517 11.9802 6.9917 11.9102 7.1417C12.0002 7.1317 12.0802 7.1217 12.1702 7.1117C12.1002 7.2517 12.0302 7.3917 11.9602 7.5417L12.0302 7.6017C12.3702 7.2717 12.7002 6.9417 13.0502 6.6017L13.2002 6.7217C13.6602 6.4517 14.0102 6.2417 14.2202 5.7217L14.4402 5.8917L14.5602 5.7417L14.4102 5.6217C15.6302 4.8517 17.2302 3.9917 18.6902 3.8117Z" fill="black"/>
<path d="M3.93922 12.1856L4.20922 11.6856L3.98922 11.5156C4.08922 11.2356 4.18922 10.9556 4.28922 10.6756C4.37922 10.7056 4.47922 10.7456 4.56922 10.7756L4.91922 10.3256C4.84922 10.3156 4.77922 10.2956 4.70922 10.2856L4.45922 10.4556L4.52922 10.2956C4.60922 10.1056 4.68922 9.92562 4.77922 9.73562C4.61922 9.88562 4.45922 10.0456 4.29922 10.1956L4.14922 10.0756C4.48255 9.70229 4.81588 9.32563 5.14922 8.94563L4.92922 8.77563C4.98922 8.69563 5.05922 8.62563 5.11922 8.54563C5.31922 8.27563 5.41922 8.09563 5.46922 7.76562C5.41589 7.68563 5.35922 7.60229 5.29922 7.51562C5.06922 7.68563 4.91922 7.84562 4.76922 8.08562C4.72922 8.15562 4.68922 8.21563 4.64922 8.28563C4.60922 8.35229 4.56589 8.42229 4.51922 8.49562C4.47922 8.56562 4.43922 8.62563 4.38922 8.69563C4.12922 9.11563 3.91922 9.54562 3.72922 10.0056L3.94922 10.1756C3.87922 10.3656 3.81922 10.5456 3.74922 10.7356L3.48922 10.7656C3.38255 10.8923 3.28589 11.0156 3.19922 11.1356L3.49922 11.3656C3.42922 11.5556 3.36922 11.7356 3.29922 11.9256C3.38922 11.9556 3.48922 11.9956 3.57922 12.0256L3.80922 11.7256C3.75922 11.6456 3.69922 11.5656 3.63922 11.4756L3.93922 11.7056C3.95255 11.8723 3.95255 12.029 3.93922 12.1756V12.1856Z" fill="black"/>
<path d="M10.7802 37.8031L10.9002 37.6531L10.7502 37.5331L10.8702 37.3831C10.9402 37.3931 11.0102 37.4131 11.0802 37.4231C10.8102 37.0831 10.6102 36.9231 10.2002 36.7831C9.67016 36.5931 9.23016 36.3131 8.77016 36.0031C8.69016 35.9531 8.61016 35.9031 8.53016 35.8431C8.34016 35.7131 8.14016 35.5931 7.95016 35.4631L7.89016 35.5331C7.43016 35.2531 6.98016 34.9831 6.51016 34.7031C6.48016 34.7931 6.44016 34.8931 6.41016 34.9831C8.31016 36.5031 9.63349 37.4131 10.3802 37.7131L10.5002 37.5631L10.8002 37.7931L10.7802 37.8031Z" fill="black"/>
<path d="M3.53031 9.95312C4.22031 8.91313 4.91031 7.87313 5.62031 6.80313C5.53031 6.77313 5.43031 6.73312 5.34031 6.70312L5.22031 6.85312C5.13031 6.82312 5.03031 6.78312 4.94031 6.75312C4.69031 6.87312 4.59031 7.03312 4.42031 7.26312C4.36031 7.34312 4.31031 7.41312 4.25031 7.49312C4.21031 7.55312 4.16031 7.61312 4.12031 7.67312L3.90031 7.50312C3.81031 7.60312 3.72031 7.71313 3.64031 7.81313C3.59031 7.87313 3.54031 7.93312 3.49031 7.98312C3.41698 8.10979 3.38031 8.24313 3.38031 8.38313C3.38031 8.52313 3.44698 8.62312 3.58031 8.68312C3.56698 8.74312 3.55031 8.80646 3.53031 8.87313C3.51031 8.95313 3.49031 9.03313 3.47031 9.12313C3.45031 9.20313 3.43031 9.28313 3.41031 9.37313C3.38031 9.51313 3.34031 9.65313 3.32031 9.79313L3.54031 9.96313L3.53031 9.95312Z" fill="black"/>
<path d="M28.9198 4.48656L29.0398 4.33656C28.5698 4.10656 28.0998 3.89656 27.6198 3.70656C27.5298 3.66656 27.4398 3.62656 27.3398 3.58656C26.4698 3.24656 25.5898 3.02656 24.6698 2.85656C24.5832 2.83656 24.4965 2.8199 24.4098 2.80656C24.3298 2.79656 24.2498 2.77656 24.1598 2.76656C24.0898 2.75656 24.0098 2.73656 23.9398 2.72656C23.6898 2.72656 23.5698 2.78656 23.3498 2.90656L23.0898 2.93656C23.1565 3.03656 23.2365 3.1399 23.3298 3.24656C23.5898 3.27656 23.8398 3.29656 24.1098 3.30656C25.6998 3.38656 27.2598 3.91656 28.6298 4.73656L28.5798 4.33656L28.9398 4.49656L28.9198 4.48656Z" fill="black"/>
<path d="M9.20016 6.19719C9.18016 6.11719 9.16016 6.03719 9.15016 5.95719C8.94016 6.02719 8.72016 6.09719 8.50016 6.17719C8.59349 6.01052 8.68349 5.84385 8.77016 5.67719L8.70016 5.61719C8.47016 5.83719 8.23016 6.05719 8.00016 6.28719C7.93016 6.34719 7.87016 6.41719 7.80016 6.47719C7.48016 6.78719 7.17016 7.08719 6.91016 7.45719C7.14016 7.63719 7.27016 7.66719 7.55016 7.71719C7.55016 7.82719 7.53016 7.93719 7.53016 8.05719C7.73016 7.90719 7.86016 7.78719 8.01016 7.59719C8.04016 7.65719 8.07016 7.72719 8.10016 7.78719C8.22016 7.65719 8.34016 7.52719 8.46016 7.39719C8.53016 7.32719 8.59016 7.25719 8.66016 7.17719C9.02682 6.76385 9.20682 6.44052 9.20016 6.20719V6.19719Z" fill="black"/>
<path d="M37.7591 21.9956C37.7791 21.9156 37.7991 21.8356 37.8291 21.7456C37.9691 21.219 38.0258 20.8423 37.9991 20.6156C37.8525 20.4823 37.7025 20.3656 37.5491 20.2656C37.4091 20.6456 37.3091 21.0156 37.2291 21.4156C37.0291 22.4156 36.8091 23.3156 36.3691 24.2456C37.4091 23.9956 37.5091 22.9156 37.7591 21.9956Z" fill="black"/>
<path d="M37.6398 17.2319L37.8698 16.9319L37.4998 16.6419C37.5298 16.5519 37.5698 16.4519 37.5998 16.3619C37.6198 15.7419 37.4598 15.1819 37.3098 14.5819C37.2898 14.4919 37.2698 14.4019 37.2498 14.3119C37.2298 14.2319 37.2098 14.1519 37.1898 14.0619C37.1698 13.9919 37.1598 13.9219 37.1398 13.8419C37.0864 13.7285 37.0031 13.6385 36.8898 13.5719C36.7764 13.5052 36.6464 13.4719 36.4998 13.4719C36.5331 13.3785 36.5664 13.2852 36.5998 13.1919C36.4898 13.1919 36.3798 13.1719 36.2598 13.1719C36.3498 13.4419 36.4298 13.7019 36.5198 13.9719C36.5398 14.0519 36.5698 14.1219 36.5898 14.2019C36.6098 14.2719 36.6398 14.3419 36.6598 14.4219C36.6798 14.4919 36.6998 14.5519 36.7298 14.6219C36.7764 14.7285 36.8498 14.8219 36.9498 14.9019L36.8298 15.0519C36.8964 15.4252 36.9931 15.6585 37.1198 15.7519L36.9998 15.9019L37.1498 16.0219L37.0298 16.1719C37.0431 16.3252 37.0664 16.4919 37.0998 16.6719C37.1198 16.7619 37.1298 16.8519 37.1498 16.9419C37.1698 17.0119 37.1998 17.0919 37.2198 17.1619C37.3098 17.1919 37.4098 17.2319 37.4998 17.2619C37.5298 17.1719 37.5698 17.0719 37.5998 16.9819L37.6298 17.2419L37.6398 17.2319Z" fill="black"/>
<path d="M7.97875 26.1962C7.90875 25.7962 7.71875 25.5162 7.48875 25.1862C7.35875 25.0062 7.24876 24.8162 7.12876 24.6262C6.88209 24.2262 6.64209 23.9862 6.40876 23.9062C6.34876 24.0063 6.29542 24.1263 6.24876 24.2663C6.20209 24.4063 6.25542 24.5329 6.40876 24.6462C6.44876 24.7162 6.47876 24.7863 6.51876 24.8563C6.55876 24.9263 6.59876 24.9962 6.63876 25.0762C6.67876 25.1462 6.71876 25.2262 6.75876 25.2962C6.85876 25.4762 6.94876 25.6563 7.04876 25.8363C6.97876 25.8263 6.90876 25.8062 6.83876 25.7962L6.66876 26.0163C6.78876 26.0663 6.89876 26.1163 7.02876 26.1763C6.89876 26.3963 6.76876 26.6062 6.63876 26.8262L7.08876 27.1763C7.13876 27.0563 7.18876 26.9462 7.24876 26.8162C7.20209 26.7762 7.15876 26.7362 7.11876 26.6962C7.07876 26.6362 7.04876 26.5762 7.00876 26.5062C7.06209 26.3062 7.12876 26.1196 7.20876 25.9462C7.29876 25.9762 7.38875 26.0062 7.47875 26.0462C7.67209 26.1129 7.83875 26.1596 7.97875 26.1862V26.1962ZM6.53876 26.9862L6.57876 26.7762L6.38876 26.8662L6.53876 26.9862Z" fill="black"/>
<path d="M19.3395 32.6331C18.9395 32.4231 18.6095 32.5231 18.1895 32.6031C17.6195 32.7131 17.1095 32.7531 16.5295 32.7131L16.6495 33.1631L16.2695 33.3431C17.0395 33.5031 17.9695 33.5631 18.6895 33.2131C18.9395 33.0331 19.1595 32.8631 19.3395 32.6231V32.6331Z" fill="black"/>
<path d="M37.2399 26.3528L37.5899 25.9028C37.4899 25.6828 37.3799 25.4828 37.2399 25.2728C37.0732 25.2128 36.9099 25.1661 36.7499 25.1328C36.3965 25.4528 36.1832 25.7261 36.1099 25.9528L36.2599 26.0728C36.2299 26.1628 36.1899 26.2428 36.1499 26.3328C36.0899 26.5328 36.0965 26.7395 36.1699 26.9528C36.2899 27.0195 36.4099 27.0728 36.5299 27.1128C36.8232 26.7528 37.0099 26.4595 37.0899 26.2328L37.2399 26.3528Z" fill="black"/>
<path d="M4.00048 27.6359C4.00048 27.2959 3.87049 27.0659 3.70049 26.7859C3.60049 26.6059 3.52049 26.4259 3.45049 26.2259C3.36382 26.0126 3.27048 25.8659 3.17048 25.7859C3.21048 25.7259 3.24049 25.6659 3.28049 25.6059C3.46049 25.1659 3.28049 24.7459 3.12049 24.3159C2.98049 24.1159 2.85048 23.9959 2.66048 23.8359C2.51048 24.0759 2.50049 24.1859 2.55049 24.4659C2.58049 24.5659 2.61049 24.6659 2.64049 24.7759C2.66049 24.8859 2.69049 24.9859 2.71049 25.0959C2.75715 25.2693 2.83048 25.3959 2.93048 25.4759C2.91048 25.5359 2.90049 25.5959 2.88049 25.6559C2.84049 25.9259 2.88048 26.0359 3.00048 26.2859C3.03382 26.3593 3.06715 26.4326 3.10048 26.5059C3.14048 26.5759 3.17049 26.6559 3.21049 26.7359C3.24049 26.8159 3.28048 26.8859 3.32048 26.9659C3.49382 27.3393 3.63715 27.5693 3.75048 27.6559L3.87049 27.5059L4.02048 27.6259L4.00048 27.6359Z" fill="black"/>
<path d="M10.2097 5.35031L10.4197 5.39031L10.0497 5.10031C10.0797 5.01031 10.1197 4.91031 10.1497 4.82031C10.0997 4.74031 10.0397 4.66031 9.97969 4.57031C9.37969 5.03031 8.85969 5.48031 8.42969 6.11031L8.51969 6.30031L9.08969 6.03031C9.16969 6.13031 9.24969 6.23031 9.32969 6.34031C9.79969 6.15031 10.1697 5.89031 10.2097 5.36031V5.35031Z" fill="black"/>
<path d="M37.4401 25.7922L38.0801 24.9722C38.0101 24.9622 37.9401 24.9422 37.8701 24.9322C37.7768 24.7855 37.6901 24.6389 37.6101 24.4922L37.3501 24.5222L37.3201 24.2622L36.9801 24.2422C36.8068 24.3955 36.6468 24.5489 36.5001 24.7022L36.3501 24.5822C36.3801 24.4922 36.4201 24.3922 36.4501 24.3022C36.3701 24.4122 36.3001 24.5322 36.2201 24.6422C36.1801 24.7022 36.1401 24.7722 36.0901 24.8322C35.9801 25.0622 35.9901 25.1822 36.0501 25.4322C36.2301 25.2522 36.4001 25.0822 36.5901 24.8922C36.5201 25.0322 36.4501 25.1722 36.3801 25.3222L36.5301 25.4422C36.5201 25.5122 36.5001 25.5822 36.4901 25.6522L36.7801 25.2822C36.9401 25.3089 37.1034 25.3555 37.2701 25.4222L37.4501 25.8022L37.4401 25.7922Z" fill="black"/>
<path d="M37.8395 26.8225C38.1295 26.2325 38.3695 25.6325 38.5795 25.0025C38.6128 24.9092 38.6461 24.8192 38.6795 24.7325C38.7595 24.5125 38.8295 24.2925 38.9095 24.0725L38.7195 24.1625L38.4395 24.0625L38.0195 24.4525L38.1895 24.7025C38.1095 25.0725 37.8195 25.2725 37.5495 25.5225L37.8295 25.6225C37.6195 26.0525 37.3995 26.4725 37.1895 26.9125L37.2595 26.9725C37.3795 26.8725 37.4995 26.7625 37.6195 26.6625L37.8395 26.8325V26.8225Z" fill="black"/>
<path d="M1.78961 14.3328C2.01961 13.9228 2.12961 13.4928 2.25961 13.0428C2.48961 12.2328 2.73961 11.5428 3.21961 10.8428C3.29961 10.7095 3.34628 10.5295 3.35961 10.3028L3.13961 10.1328C2.77961 10.5628 2.54961 10.9628 2.35961 11.4828C2.32961 11.5528 2.30961 11.6228 2.27961 11.6928C2.06961 12.2528 1.91961 12.8028 1.79961 13.3928L1.94961 13.5128L1.59961 13.9628L1.74961 14.0828L1.62961 14.2328L1.77961 14.3528L1.78961 14.3328Z" fill="black"/>
<path d="M13.6691 2.42344L13.7091 2.21344C13.8091 1.93344 13.8491 1.86344 14.1191 1.69344L13.8991 1.52344C13.8391 1.59344 13.7891 1.65344 13.7291 1.72344C13.3991 2.04344 12.9991 2.20344 12.5791 2.39344C12.1891 2.58344 11.8091 2.79344 11.4391 3.01344C11.2924 3.1001 11.1424 3.17677 10.9891 3.24344C10.9391 3.27344 10.8791 3.30344 10.8291 3.33344L10.7891 3.54344L10.9391 3.66344C11.8191 3.42344 12.6691 2.94344 13.4891 2.53344L13.6791 2.44344L13.6691 2.42344Z" fill="black"/>
<path d="M10.7801 37.8006L10.9001 37.6506L10.7501 37.5306L10.8701 37.3806C10.9401 37.3906 11.0101 37.4106 11.0801 37.4206C10.7401 37.0006 10.4401 36.8506 9.93008 36.6806C9.58008 36.5406 9.28008 36.3506 8.97008 36.1406C8.92341 36.3006 8.87674 36.464 8.83008 36.6306C9.02008 36.7806 9.21008 36.9306 9.40008 37.0806C9.45008 37.1206 9.51008 37.1706 9.56008 37.2106C9.82008 37.4206 10.0601 37.5806 10.3701 37.7106L10.4901 37.5606L10.7901 37.7906L10.7801 37.8006Z" fill="black"/>
<path d="M12.7395 4.09625L12.8595 3.94625L12.4895 3.65625C12.2995 3.74625 12.1095 3.83625 11.9195 3.92625C11.9195 3.81625 11.9395 3.70625 11.9395 3.58625C11.9995 3.55625 12.0695 3.52625 12.1295 3.49625C12.1295 3.38625 12.1495 3.27625 12.1495 3.15625C11.8795 3.31625 11.6095 3.47625 11.3495 3.64625C11.2761 3.69292 11.1995 3.73958 11.1195 3.78625C11.0495 3.82625 10.9695 3.87625 10.8995 3.92625C10.8295 3.96625 10.7695 4.00625 10.6995 4.04625C10.5928 4.12625 10.5061 4.26292 10.4395 4.45625C10.5395 4.37625 10.6395 4.29625 10.7495 4.21625C11.0895 4.32625 11.2695 4.52625 11.4895 4.79625C11.5428 4.74958 11.5995 4.69958 11.6595 4.64625C11.9695 4.37625 12.2995 4.21625 12.6795 4.03625L12.7495 4.09625H12.7395Z" fill="black"/>
<path d="M2.37906 29.2522L2.64905 28.7522C2.49905 28.5922 2.33905 28.4322 2.18905 28.2722C2.27905 28.2622 2.35905 28.2522 2.44905 28.2422L2.74905 28.4722C2.84905 28.3922 2.94905 28.3122 3.05905 28.2322C2.93905 28.1822 2.82905 28.1322 2.69905 28.0722L2.84905 28.1922L2.72905 28.3422C2.69905 28.2722 2.65906 28.2022 2.62906 28.1322C2.57906 28.0422 2.53905 27.9522 2.48905 27.8622C2.44905 27.7722 2.39905 27.6822 2.35905 27.5922C2.18905 27.3222 2.01905 27.1722 1.74905 26.9922C1.72905 27.0522 1.70905 27.1022 1.67905 27.1622C1.62572 27.2955 1.53239 27.3855 1.39905 27.4322C1.33905 27.7522 1.50905 27.9122 1.66905 28.1822C1.72905 28.2822 1.78905 28.3722 1.84905 28.4722C2.01905 28.7322 2.18905 28.9922 2.35905 29.2522H2.37906Z" fill="black"/>
<path d="M15.4098 1.27L15.3198 1.08C15.3298 1.01 15.3498 0.940001 15.3598 0.870001L15.2098 0.75C14.9498 0.86 14.8398 0.920001 14.6598 1.16C14.5398 1.11 14.4298 1.06 14.2998 1L14.1298 1.22L14.4298 1.45C14.2765 1.56333 14.1298 1.64333 13.9898 1.69C13.7498 1.83 13.6898 1.98 13.5898 2.23C13.7298 2.3 13.8698 2.37 14.0198 2.44C14.2498 2.25 14.4298 2.07 14.6198 1.83C14.7098 1.86 14.8098 1.9 14.8998 1.93C15.1998 1.79 15.2798 1.55 15.4198 1.26L15.4098 1.27Z" fill="black"/>
<path d="M11.5598 8.07375L11.1798 8.25375C11.1265 8.17375 11.0698 8.09042 11.0098 8.00375C11.1898 7.82375 11.3598 7.65375 11.5498 7.46375L11.3998 7.34375C11.0465 7.68375 10.8532 7.93042 10.8198 8.08375L10.6698 7.96375C10.4165 8.23708 10.1598 8.51708 9.89984 8.80375C10.0698 8.89375 10.2298 8.98375 10.3998 9.07375L8.83984 11.0837L8.90984 11.1438C8.95984 11.0838 8.99984 11.0338 9.04984 10.9738C9.25984 10.7138 9.47984 10.4638 9.68984 10.2038C9.75984 10.1138 9.83984 10.0338 9.90984 9.94375C10.2798 9.49375 10.6598 9.06375 11.0698 8.64375C11.2498 8.46375 11.3998 8.26375 11.5498 8.05375L11.5598 8.07375Z" fill="black"/>
<path d="M1.25 19.6431C1.25 19.5231 1.25 19.4031 1.25 19.2731C1.25 18.7931 1.29 18.3131 1.32 17.8231C1.32 17.7531 1.32 17.6831 1.33 17.6031C1.36 17.1831 1.42 16.7831 1.51 16.3731L1.29 16.2031C0.860001 16.9931 0.89 17.9531 0.82 18.8231C0.806666 19.0298 0.783333 19.2098 0.75 19.3631L0.9 19.4831C0.87 19.5731 0.830001 19.6731 0.800001 19.7631C0.870001 19.7731 0.94 19.7931 1.01 19.8031L1.03 19.4631L1.25 19.6331V19.6431Z" fill="black"/>
<path d="M3.96047 10.1622C4.19047 9.85219 4.41047 9.54219 4.64047 9.23219C4.70714 9.14552 4.77047 9.05552 4.83047 8.96219C4.89047 8.87219 4.95047 8.79219 5.02047 8.70219C5.08047 8.62219 5.13047 8.54219 5.19047 8.46219C5.34047 8.22219 5.42047 8.02219 5.47047 7.74219C5.42047 7.66219 5.36047 7.58219 5.30047 7.49219C5.07047 7.66219 4.92047 7.82219 4.77047 8.06219C4.73047 8.13219 4.69047 8.19219 4.65047 8.26219C4.61047 8.33219 4.57047 8.40219 4.52047 8.47219C4.48047 8.53886 4.43714 8.60552 4.39047 8.67219C4.13047 9.09219 3.92047 9.52219 3.73047 9.98219L3.95047 10.1522L3.96047 10.1622Z" fill="black"/>
<path d="M4.7496 7.91531L5.6196 6.79531C5.5296 6.76531 5.4296 6.72531 5.3396 6.69531L5.2196 6.84531C5.1296 6.81531 5.0296 6.77531 4.9396 6.74531C4.6896 6.86531 4.5896 7.02531 4.4196 7.25531C4.3596 7.33531 4.3096 7.40531 4.2496 7.48531C4.2096 7.54531 4.1596 7.60531 4.1196 7.66531L3.8996 7.49531C3.8096 7.59531 3.7196 7.70531 3.6396 7.80531C3.59293 7.86531 3.54293 7.92198 3.4896 7.97531C3.43627 8.02865 3.3996 8.16198 3.3796 8.37531C3.3596 8.58865 3.45293 8.70864 3.6596 8.73531C3.6996 8.65531 3.7496 8.58531 3.7896 8.50531C4.0296 8.08531 4.2896 7.68531 4.5496 7.28531L4.8496 7.51531L4.7696 7.92531L4.7496 7.91531Z" fill="black"/>
<path d="M13.2703 3.59375C13.297 3.42708 13.257 3.26042 13.1503 3.09375C13.2436 2.92708 13.3336 2.76042 13.4203 2.59375C12.8003 2.72375 12.3403 2.98375 11.9903 3.51375L11.8203 3.73375L11.8503 3.99375C11.9036 3.96042 11.957 3.92708 12.0103 3.89375C12.3003 3.78375 12.4803 3.81375 12.7803 3.87375L12.9303 3.99375C13.097 3.88042 13.2103 3.74708 13.2703 3.59375Z" fill="black"/>
<path d="M26.1801 3.54281C25.8901 3.11281 25.4001 3.00281 24.9101 2.90281C24.7101 2.86281 24.5101 2.83281 24.3001 2.80281C24.2301 2.79281 24.1701 2.78281 24.1001 2.77281C23.7801 2.73281 23.5267 2.77281 23.3401 2.89281L23.0801 2.92281C23.1467 3.02281 23.2267 3.12615 23.3201 3.23281C23.5901 3.27281 23.8501 3.29281 24.1201 3.30281C24.7201 3.33281 25.2901 3.39281 25.8701 3.52281C25.9901 3.54948 26.0934 3.55615 26.1801 3.54281Z" fill="black"/>
<path d="M0.85 22.9216C0.87 22.3916 0.8 22.0616 0.54 21.6016C0.473334 21.4816 0.436666 21.3516 0.43 21.2116C0.423333 21.0716 0.34 20.9516 0.18 20.8516C0.0499996 21.2316 0.0599999 21.4816 0.11 21.8716C0.0799999 21.9516 0.06 22.0416 0.03 22.1216C-0.01 22.2749 -0.01 22.4216 0.03 22.5616C0.19 22.7816 0.329999 22.8516 0.589999 22.9516L0.85 22.9216Z" fill="black"/>
<path d="M2.61026 23.5737C2.77026 23.2837 2.77026 23.1237 2.69026 22.8037C2.63026 22.5637 2.59026 22.3337 2.56026 22.0938C2.51026 21.7738 2.43026 21.4937 2.31026 21.1937L2.03026 21.0938C2.00026 21.7038 2.00026 22.2938 2.19026 22.8838L2.34026 23.0037L2.22026 23.1538C2.35026 23.2938 2.48026 23.4337 2.61026 23.5737Z" fill="black"/>
<path d="M4.26016 28.6756C4.26016 28.5656 4.28016 28.4556 4.28016 28.3356C4.21349 28.309 4.14682 28.2823 4.08016 28.2556C3.81016 28.0956 3.73016 27.9656 3.58016 27.6856C3.41016 27.3656 3.33016 27.2456 3.03016 27.0156L2.80016 27.3156C2.83016 27.3756 2.86016 27.4456 2.89016 27.5056C2.77016 27.4556 2.66016 27.4056 2.53016 27.3456L2.41016 27.4956C2.52016 27.6556 2.63016 27.8256 2.74016 27.9956C2.94016 27.8556 3.05682 27.7056 3.09016 27.5456L3.24016 27.6656C3.17016 27.8056 3.10016 27.9456 3.03016 28.0956C3.16016 28.2356 3.29016 28.3756 3.42016 28.5156C3.50016 28.4656 3.58016 28.4056 3.67016 28.3456C3.86016 28.4556 4.05016 28.5656 4.25016 28.6756H4.26016Z" fill="black"/>
<path d="M37.8091 21.7812C37.5191 21.9712 37.4991 22.0613 37.3991 22.3813C37.3691 22.4613 37.3491 22.5313 37.3191 22.6113C37.2991 22.6713 37.2791 22.7313 37.2591 22.7913C37.1991 22.6613 37.1391 22.5413 37.0791 22.4113C37.0491 22.4913 37.0291 22.5713 36.9991 22.6513C36.8791 22.9913 36.7491 23.3213 36.6191 23.6513C36.5691 23.7613 36.5291 23.8813 36.4791 23.9913C36.4491 24.0813 36.4091 24.1613 36.3691 24.2513C37.4591 23.9813 37.5691 22.7513 37.8091 21.7812Z" fill="black"/>
<path d="M13.0791 31.4762L13.1191 31.2663C12.7991 31.0763 12.4891 30.9062 12.1491 30.7562C11.5391 30.4562 10.9891 30.0462 10.4291 29.6562L10.3691 29.7262L11.4891 30.5962L11.3691 30.7463C11.6191 31.0363 11.8191 31.2462 12.1891 31.3862C12.3491 31.3862 12.4991 31.3962 12.6591 31.3862C12.7991 31.4062 12.9391 31.4362 13.0691 31.4662L13.0791 31.4762Z" fill="black"/>
<path d="M39.1103 24.1013C39.4103 23.6413 39.4903 23.3113 39.5503 22.7713C39.5803 22.6813 39.6003 22.5913 39.6303 22.5013C39.6903 22.2713 39.6903 22.1113 39.6403 21.8813L39.3603 21.7812C39.3403 21.8813 39.3203 21.9713 39.3103 22.0713C39.2903 22.2013 39.2603 22.3313 39.2403 22.4613C39.2303 22.5213 39.2203 22.5913 39.2003 22.6513C39.1203 23.0813 38.9903 23.4613 38.8203 23.8613L39.1203 24.0913L39.1103 24.1013Z" fill="black"/>
<path d="M3.99883 27.6325C3.99883 27.2925 3.86883 27.0625 3.69883 26.7825C3.59883 26.6025 3.51883 26.4225 3.44883 26.2225C3.36216 26.0092 3.26883 25.8625 3.16883 25.7825C3.23883 25.6425 3.30883 25.5025 3.37883 25.3525L3.16883 25.3125C3.11883 25.4325 3.06883 25.5425 3.00883 25.6725L2.79883 25.6325C3.15216 26.7792 3.46216 27.4558 3.72883 27.6625L3.84883 27.5125L3.99883 27.6325Z" fill="black"/>
<path d="M35.0088 28.9244L34.9188 28.7344L34.7988 28.8844C34.7388 28.8644 34.6887 28.8544 34.6287 28.8344C34.3087 28.7944 34.0988 28.8344 33.7988 28.9444C33.6654 29.1444 33.5554 29.3377 33.4688 29.5244C33.6688 29.6777 33.8354 29.7677 33.9688 29.7944C34.1021 29.6877 34.2421 29.561 34.3888 29.4144C34.5354 29.2677 34.7388 29.1044 34.9988 28.9244H35.0088Z" fill="black"/>
<path d="M17.8694 33.7612C17.4694 33.6112 17.1294 33.6212 16.7094 33.6612C16.5627 33.6745 16.4027 33.6445 16.2294 33.5712C16.2394 33.5012 16.2594 33.4312 16.2694 33.3612C15.9294 33.2412 15.9094 33.3012 15.6094 33.4412L15.9794 33.7312L15.8594 33.8812C16.2194 34.0012 16.5194 34.0412 16.8994 34.0412C16.9927 34.0412 17.086 34.0412 17.1794 34.0412C17.4694 34.0212 17.6794 34.0112 17.8694 33.7712V33.7612Z" fill="black"/>
<path d="M1.78961 14.3356C2.02961 13.8756 2.15961 13.4056 2.29961 12.9156C2.32961 12.8256 2.34961 12.7356 2.37961 12.6456C2.39961 12.5556 2.42961 12.4756 2.44961 12.3856C2.46961 12.3056 2.49961 12.2256 2.51961 12.1456C2.54628 12.019 2.52961 11.8923 2.46961 11.7656C2.06961 12.2056 1.94961 12.6156 1.83961 13.1856L1.79961 13.3956L1.94961 13.5156L1.59961 13.9656L1.74961 14.0856L1.62961 14.2356L1.77961 14.3556L1.78961 14.3356Z" fill="black"/>
<path d="M4.169 8.66344C4.489 8.26344 4.799 7.88344 5.019 7.41344C4.959 7.44677 4.89567 7.47677 4.829 7.50344L4.529 7.27344C4.419 7.40344 4.309 7.53344 4.209 7.65344C4.149 7.72344 4.089 7.79344 4.029 7.87344C3.94234 8.0201 3.89567 8.16344 3.88901 8.30344C3.88234 8.44344 3.97567 8.56344 4.169 8.66344Z" fill="black"/>
<path d="M6.43023 20.205C6.60023 19.885 6.63023 19.575 6.65023 19.215C6.6569 19.1017 6.6669 18.9917 6.68023 18.885C6.69357 18.7783 6.70024 18.6917 6.70024 18.625C6.45357 18.7317 6.2869 18.8417 6.20024 18.955L5.99023 18.915C5.99023 19.075 5.99023 19.235 5.99023 19.395C5.99023 19.485 5.99023 19.575 5.99023 19.665C6.02357 19.8317 6.10357 19.9717 6.23023 20.085C6.29023 20.125 6.35023 20.155 6.41023 20.195L6.43023 20.205Z" fill="black"/>
<path d="M7.97867 26.1903C7.93867 26.0403 7.89867 25.8903 7.85867 25.7403L7.64867 25.7003L7.47867 25.9203L7.02867 25.5703C7.03867 25.6603 7.04867 25.7403 7.05867 25.8303C6.98867 25.8203 6.91867 25.8003 6.84867 25.7903L6.67867 26.0103C6.79867 26.0603 6.90867 26.1103 7.03867 26.1703C6.90867 26.3903 6.77867 26.6003 6.64867 26.8203L7.09867 27.1703C7.14867 27.0503 7.19867 26.9403 7.25867 26.8103C7.212 26.7703 7.16867 26.7303 7.12867 26.6903C7.08867 26.6303 7.05867 26.5703 7.01867 26.5003C7.072 26.3003 7.13867 26.1136 7.21867 25.9403C7.30867 25.9703 7.39867 26.0003 7.48867 26.0403C7.682 26.107 7.84867 26.1536 7.98867 26.1803L7.97867 26.1903ZM6.53867 26.9803L6.57867 26.7703L6.38867 26.8603L6.53867 26.9803Z" fill="black"/>
<path d="M11.9598 7.56688C12.0298 7.47688 12.0898 7.39688 12.1598 7.30688C12.2098 7.23688 12.2598 7.17687 12.3098 7.10687C12.2398 7.09687 12.1698 7.07688 12.0998 7.06688L11.9798 7.21688L11.7598 7.04688L11.0098 8.01687C11.0698 8.14687 11.1298 8.26688 11.1898 8.39688C11.4898 8.15688 11.7198 7.88687 11.9498 7.57687L11.9598 7.56688Z" fill="black"/>
<path d="M4.56914 10.7656L4.91914 10.3156C4.84914 10.3056 4.77914 10.2856 4.70914 10.2756C4.62914 10.3256 4.54914 10.3856 4.45914 10.4456C4.47914 10.3956 4.50914 10.3456 4.52914 10.2856C4.60914 10.0956 4.68914 9.91563 4.77914 9.72563C4.61914 9.87563 4.45914 10.0356 4.29914 10.1856L4.14914 10.0656C4.48247 9.69229 4.81581 9.31563 5.14914 8.93563L4.92914 8.76562C4.78914 8.93563 4.64914 9.11563 4.50914 9.28563C4.46914 9.33563 4.42914 9.38563 4.38914 9.43563C4.12914 9.75563 3.97914 10.0556 3.86914 10.4456C3.97914 10.4056 4.07914 10.3756 4.18914 10.3356L4.33914 10.4556L4.21914 10.6056L4.57914 10.7656H4.56914Z" fill="black"/>
<path d="M31.0691 32.9122C31.0391 32.8622 31.0091 32.8122 30.9791 32.7522C30.8691 32.5022 30.8491 32.2722 30.8191 32.0022L30.7291 31.8122L30.8291 31.5322L30.6191 31.4922L30.4491 31.7122L30.3191 31.7322C30.2491 31.9222 30.1891 32.1022 30.1191 32.2922L30.4191 32.5222C30.4091 32.5922 30.3891 32.6622 30.3791 32.7322C30.4391 32.7022 30.5091 32.6722 30.5691 32.6422C30.7425 32.7289 30.9091 32.8189 31.0691 32.9122Z" fill="black"/>
<path d="M3.50945 28.5769C3.35945 28.4169 3.19945 28.2569 3.04945 28.0969C3.11945 27.9569 3.18945 27.8169 3.25945 27.6669L3.10945 27.5469C3.05945 27.6669 3.00945 27.7769 2.94945 27.9069C2.87945 27.8969 2.80945 27.8769 2.73945 27.8669C2.79945 27.9969 2.85945 28.1169 2.91945 28.2469L2.74945 28.4669C2.64945 28.3469 2.53945 28.2269 2.43945 28.1069C2.35945 28.1569 2.27945 28.2169 2.18945 28.2769C2.26279 28.4435 2.37279 28.6102 2.51945 28.7769C2.91945 28.8769 3.23945 28.9269 3.49945 28.5869L3.50945 28.5769Z" fill="black"/>
<path d="M13.2002 6.72375C13.2135 6.65708 13.2268 6.58708 13.2402 6.51375C13.3502 6.19375 13.5202 5.97375 13.7402 5.71375L13.5902 5.59375C13.3502 5.78708 13.2135 5.96042 13.1802 6.11375L13.0302 5.99375C13.0102 6.07375 12.9802 6.15375 12.9602 6.24375C12.8302 6.57375 12.6602 6.80375 12.4302 7.08375C12.3302 6.96375 12.2202 6.84375 12.1202 6.72375C12.0502 6.86375 11.9802 7.00375 11.9102 7.15375C12.0002 7.14375 12.0802 7.13375 12.1702 7.12375C12.1002 7.26375 12.0302 7.40375 11.9602 7.55375L12.0302 7.61375C12.3702 7.28375 12.7002 6.95375 13.0502 6.61375L13.2002 6.73375V6.72375Z" fill="black"/>
<path d="M1.05039 18.0509C1.41039 17.5409 1.52039 17.0009 1.51039 16.3809L1.29039 16.2109C1.12039 16.5209 1.04039 16.7809 0.990391 17.1309C0.980391 17.2109 0.970392 17.2909 0.950392 17.3809C0.930392 17.5709 0.910391 17.7609 0.900391 17.9509L1.05039 18.0709V18.0509Z" fill="black"/>
<path d="M1.31961 20.7866C1.44961 20.4166 1.48961 20.1466 1.38961 19.7666C1.26294 19.6466 1.13961 19.5499 1.01961 19.4766C0.929609 19.7666 0.879609 20.0066 0.849609 20.3066L0.999609 20.4266C0.969609 20.5166 0.929609 20.6166 0.899609 20.7066L1.30961 20.7866H1.31961Z" fill="black"/>
<path d="M2.40883 20.9137C2.46883 20.8137 2.52216 20.6937 2.56883 20.5537C2.61549 20.4137 2.55549 20.2871 2.38883 20.1738C2.31883 19.7938 2.32883 19.4737 2.38883 19.0938L2.19883 19.1838C2.14549 19.3504 2.09883 19.5137 2.05883 19.6737C1.96883 19.6837 1.88883 19.6938 1.79883 19.7038C1.82883 19.9638 1.86883 20.2238 1.89883 20.4938C2.05883 20.5438 2.21883 20.5838 2.38883 20.6338L2.26883 20.7837L2.41883 20.9038L2.40883 20.9137Z" fill="black"/>
<path d="M14.3902 5.49062C14.3002 5.46062 14.2002 5.42062 14.1102 5.39062C13.7202 5.65062 13.4502 5.85062 13.2802 6.30062C13.2702 6.37062 13.2502 6.44062 13.2402 6.51062L13.3902 6.63062C13.8702 6.32062 14.1202 6.00062 14.3902 5.50062V5.49062Z" fill="black"/>
<path d="M18.69 3.81558L18.86 3.59558C18.61 3.43558 18.5 3.43558 18.2 3.50558C18.09 3.53558 17.98 3.57558 17.87 3.61558C17.76 3.64558 17.65 3.68558 17.53 3.71558C17.45 3.74558 17.36 3.77558 17.27 3.79558C17.2433 3.93558 17.2433 4.09225 17.27 4.26558C17.3633 4.23225 17.4567 4.20225 17.55 4.17558C17.67 4.13558 17.79 4.09558 17.91 4.05558C17.97 4.03558 18.03 4.01558 18.09 3.99558C18.29 3.92225 18.49 3.86558 18.69 3.82558V3.81558Z" fill="black"/>
<path d="M19.3395 32.636C18.9995 32.426 18.7095 32.486 18.3195 32.566L18.1995 32.716C18.2328 32.876 18.2728 33.026 18.3195 33.166L17.9395 33.346C18.3395 33.386 18.5195 33.316 18.8295 33.076C18.8995 33.026 18.9695 32.976 19.0395 32.916C19.1528 32.8226 19.2495 32.726 19.3295 32.626L19.3395 32.636Z" fill="black"/>
<path d="M3.96024 10.1656C4.32024 9.71562 4.63023 9.26562 4.93023 8.76562C4.88023 8.68563 4.82023 8.60563 4.76023 8.51562C4.62023 8.69563 4.48023 8.87563 4.34023 9.05563C4.30023 9.10896 4.26024 9.15896 4.22024 9.20563C4.02024 9.45563 3.85023 9.68562 3.74023 9.98562L3.96024 10.1556V10.1656Z" fill="black"/>
<path d="M39.9288 19.36C39.9588 19.27 39.9988 19.17 40.0288 19.08L39.8787 18.96L39.9988 18.81L39.8488 18.69C39.8588 18.63 39.8788 18.58 39.8988 18.52C39.9388 18.25 39.9088 18.02 39.8688 17.75L39.6788 17.84L39.4688 17.8L39.5688 18.59C39.5688 18.67 39.5588 18.74 39.5488 18.82C39.5588 19.09 39.6088 19.18 39.7988 19.36L39.9288 19.34V19.36Z" fill="black"/>
<path d="M4.7493 7.91531L5.6193 6.79531C5.5293 6.76531 5.4293 6.72531 5.3393 6.69531L5.2193 6.84531C5.1293 6.81531 5.0293 6.77531 4.9393 6.74531L4.5293 7.26531L4.8293 7.49531L4.7493 7.90531V7.91531Z" fill="black"/>
<path d="M11.1894 5.16531L11.3594 4.94531C11.0694 4.96531 10.9594 4.99531 10.7094 5.16531C10.6494 5.29198 10.596 5.41198 10.5494 5.52531C10.4294 5.47531 10.3194 5.42531 10.1894 5.36531C10.0794 5.55531 9.96937 5.74531 9.85938 5.94531L10.0494 5.85531C10.1394 5.88531 10.2394 5.92531 10.3294 5.95531C10.3394 5.88531 10.3594 5.81531 10.3694 5.74531C10.4594 5.77531 10.5594 5.81531 10.6494 5.84531C10.9394 5.65531 11.0094 5.48531 11.1694 5.17531L11.1894 5.16531Z" fill="black"/>
<path d="M3.48016 30.4529C3.58016 30.3329 3.68016 30.2029 3.77016 30.0829C3.75682 29.9962 3.70349 29.8962 3.61016 29.7829C3.26016 29.5929 3.04016 29.7029 2.66016 29.8129C2.89349 30.1729 3.10682 30.3829 3.30016 30.4429C3.36016 30.4429 3.42016 30.4429 3.48016 30.4429V30.4529Z" fill="black"/>
<path d="M5.16039 9.54594C5.02039 9.47594 4.88039 9.40594 4.73039 9.33594L4.15039 10.0759L4.30039 10.1959L4.71039 9.67594L4.86039 9.79594C4.78039 9.88927 4.70373 9.9826 4.63039 10.0759C4.55706 10.1693 4.48039 10.2726 4.40039 10.3859C4.41039 10.4759 4.42039 10.5559 4.43039 10.6459C4.89706 10.2326 5.14372 9.86594 5.17039 9.54594H5.16039Z" fill="black"/>
<path d="M8.65883 36.3922L8.71883 36.3222C8.49883 36.1522 8.27883 35.9722 8.05883 35.8022C7.99883 35.7522 7.93883 35.7022 7.86883 35.6522C7.80883 35.6022 7.74883 35.5622 7.68883 35.5122C7.62883 35.4722 7.57883 35.4222 7.51883 35.3822C7.41883 35.3155 7.30216 35.2689 7.16883 35.2422L7.04883 35.3922C7.26883 35.5722 7.48883 35.7422 7.69883 35.9122C7.75883 35.9622 7.81883 36.0122 7.88883 36.0622C7.94883 36.1122 8.00883 36.1522 8.06883 36.2022C8.12216 36.2489 8.17883 36.2922 8.23883 36.3322C8.29883 36.3722 8.43883 36.3922 8.65883 36.3922Z" fill="black"/>
<path d="M36.9098 14.6319C37.0598 14.3519 37.0698 14.1919 37.0198 13.8819L37.0598 13.6719C36.8698 13.5819 36.6998 13.5119 36.4998 13.4719L36.5998 13.1919L36.2598 13.1719C36.3298 13.3819 36.3898 13.5919 36.4598 13.8019C36.4998 13.9219 36.5298 14.0419 36.5698 14.1619C36.6498 14.3619 36.7631 14.5185 36.9098 14.6319Z" fill="black"/>
<path d="M26.1794 3.54555C25.9194 3.15555 25.5294 3.06555 25.0994 2.94555C24.8394 2.92555 24.6194 2.94555 24.3594 2.97555C24.5894 3.32555 24.8994 3.37555 25.2894 3.46555C25.5794 3.50555 25.8794 3.53555 26.1794 3.55555V3.54555Z" fill="black"/>
<path d="M5.47984 33.5609C5.42984 33.1609 5.19984 33.0309 4.90984 32.7609C4.93984 32.6709 4.97984 32.5709 5.00984 32.4809L4.33984 31.9609C4.37984 32.2709 4.44984 32.3509 4.64984 32.5809C4.69984 32.6409 4.74984 32.7009 4.80984 32.7609C4.84984 32.8109 4.88984 32.8509 4.92984 32.9009L4.63984 33.2709C4.96651 33.4776 5.18318 33.6076 5.28984 33.6609L5.47984 33.5709V33.5609Z" fill="black"/>
<path d="M2.07036 19.8128C2.12036 19.6828 2.18036 19.5428 2.23036 19.4028C2.25703 19.3295 2.28703 19.2528 2.32036 19.1728C2.34036 19.1028 2.35036 19.0328 2.37036 18.9628C2.32036 18.8828 2.26036 18.8028 2.20036 18.7128L2.24036 18.5028L2.09036 18.3828C1.99036 18.4428 1.88703 18.5228 1.78036 18.6228C1.6737 18.7228 1.65703 18.8795 1.73036 19.0928C1.73036 19.1728 1.73036 19.2628 1.73036 19.3428C1.75703 19.4895 1.86703 19.6395 2.06036 19.7928L2.07036 19.8128Z" fill="black"/>
<path d="M3.93891 12.1838L4.20891 11.6838L3.9889 11.5138L4.10891 11.3638L3.95891 11.2437L4.07891 11.0938C4.02891 11.0138 3.96891 10.9338 3.90891 10.8438C3.80891 10.9838 3.71891 11.1238 3.62891 11.2638C3.57557 11.3438 3.52224 11.4237 3.46891 11.5037C3.41557 11.5837 3.38557 11.7437 3.37891 11.9837C3.44891 11.9937 3.51891 12.0138 3.58891 12.0238L3.8189 11.7238C3.7689 11.6438 3.7089 11.5638 3.6489 11.4738L3.94891 11.7038C3.96224 11.8704 3.96224 12.0271 3.94891 12.1737L3.93891 12.1838Z" fill="black"/>
<path d="M37.7294 21.7256C37.9494 21.2256 38.0361 20.8556 37.9894 20.6156C37.8427 20.4823 37.6927 20.3656 37.5394 20.2656C37.3994 20.6056 37.3094 20.8556 37.3894 21.2256L37.5094 21.0756L37.7294 21.2456C37.6994 21.3856 37.6794 21.5156 37.6494 21.6556L37.7194 21.7156L37.7294 21.7256Z" fill="black"/>
<path d="M15.3887 4.83094L15.2387 4.71094L14.7787 5.31094C14.7487 5.26094 14.7087 5.21094 14.6787 5.15094C14.6287 5.10094 14.5887 5.05094 14.5387 5.00094C14.2787 5.03094 14.1187 5.10094 13.8887 5.22094L13.9387 5.62094L14.1887 5.45094C14.2587 5.46094 14.3287 5.48094 14.3987 5.49094L14.2287 5.71094L14.4487 5.88094L14.5687 5.73094L14.4187 5.61094C14.5187 5.56094 14.6087 5.51094 14.7087 5.46094C15.0187 5.29094 15.1987 5.10094 15.3887 4.81094V4.83094Z" fill="black"/>
<path d="M6.91992 24.1766C6.78992 23.8966 6.64992 23.6266 6.50992 23.3666C6.46992 23.2966 6.42992 23.2166 6.38992 23.1466C6.35992 23.0966 6.32992 23.0366 6.29992 22.9766L6.12992 23.1966C6.05992 23.1866 5.98992 23.1666 5.91992 23.1566C6.04992 23.4466 6.16992 23.7466 6.29992 24.0466L6.41992 23.8966C6.58992 23.9866 6.74992 24.0766 6.91992 24.1666V24.1766Z" fill="black"/>
<path d="M38.36 25.0756C38.43 24.9656 38.51 24.8456 38.58 24.7356C38.62 24.669 38.66 24.6056 38.7 24.5456C38.74 24.4856 38.78 24.309 38.82 24.0156L38.7 24.1656C38.61 24.1356 38.51 24.0956 38.42 24.0656C38.28 24.1956 38.14 24.3256 38 24.4556C38.12 24.789 38.2367 24.999 38.35 25.0856L38.36 25.0756Z" fill="black"/>
<path d="M12.7402 4.09625L12.8602 3.94625C12.7468 3.84625 12.6235 3.74958 12.4902 3.65625C12.2002 3.75625 12.0502 3.83625 11.8202 4.02625C11.7602 4.07625 11.7002 4.11625 11.6402 4.16625C11.4702 4.35625 11.4402 4.48625 11.4102 4.73625C11.7602 4.57625 12.0502 4.37625 12.3702 4.15625C12.4835 4.07625 12.6102 4.05625 12.7502 4.09625H12.7402Z" fill="black"/>
<path d="M2.31936 25.4928L2.48936 25.2728C2.45602 25.1195 2.40936 24.9561 2.34936 24.7828C2.31936 24.6928 2.28936 24.6128 2.25936 24.5228C2.19269 24.3761 2.08602 24.2461 1.93936 24.1328C1.82936 24.3328 1.77936 24.4528 1.80936 24.6828C1.82936 24.7495 1.84936 24.8161 1.86936 24.8828C1.88936 24.9528 1.90936 25.0128 1.92936 25.0828C1.98936 25.2028 2.11602 25.3395 2.30936 25.4928H2.31936Z" fill="black"/>
<path d="M37.7389 27.1056C37.8056 26.919 37.8522 26.7556 37.8789 26.6156C37.7889 26.5856 37.6889 26.5456 37.5989 26.5156C37.3489 26.9156 37.0989 27.3256 36.8789 27.7456C37.3389 27.6756 37.4989 27.4756 37.7389 27.0956V27.1056Z" fill="black"/>
<path d="M12.0591 2.96656L11.9291 2.98656C11.9191 2.89656 11.9091 2.81656 11.8991 2.72656C11.7924 2.79323 11.6857 2.8599 11.5791 2.92656C11.3791 3.04656 11.1891 3.15656 10.9791 3.25656C10.9291 3.28656 10.8791 3.30656 10.8291 3.33656L10.7891 3.54656L10.9391 3.66656C11.0991 3.6199 11.2724 3.56323 11.4591 3.49656C11.5491 3.46656 11.6491 3.42656 11.7391 3.38656C11.8924 3.30656 12.0024 3.17323 12.0691 2.98656L12.0591 2.96656Z" fill="black"/>
<path d="M1.58945 21.8269L1.49945 21.6369L1.61945 21.4869L1.46945 21.3669L1.58945 21.2169L1.43945 21.0969L1.55945 20.9469L1.40945 20.8269L1.50945 20.5469L0.939453 20.8169L1.08945 20.9369L0.969454 21.0869C1.02945 21.2669 1.09612 21.4369 1.16945 21.5969L1.33945 21.3769C1.32945 21.4469 1.30945 21.5169 1.29945 21.5869L1.59945 21.8169L1.58945 21.8269Z" fill="black"/>
<path d="M37.9788 20.48C38.0988 20.14 38.1288 20.03 38.0088 19.67C37.8788 19.53 37.7588 19.38 37.6188 19.25C37.5688 19.57 37.5188 19.88 37.4688 20.21C37.6388 20.3 37.7987 20.39 37.9688 20.48H37.9788Z" fill="black"/>
<path d="M0.778936 22.3916C0.748936 21.9916 0.658936 21.7616 0.458936 21.4216L0.428936 21.2016L0.408935 21.0216L0.188936 20.8516C0.0622693 21.2316 0.0322692 21.5282 0.0989358 21.7416C0.165603 21.9549 0.315603 22.0716 0.548937 22.0916C0.64227 22.1982 0.72227 22.3016 0.788936 22.4016L0.778936 22.3916Z" fill="black"/>
<path d="M10.0003 37.4316L10.0403 37.2216C9.71031 36.8216 9.37031 36.6016 8.92031 36.3516C8.89031 36.4416 8.85031 36.5416 8.82031 36.6316C9.34031 37.0449 9.73031 37.3082 9.99031 37.4216L10.0003 37.4316Z" fill="black"/>
<path d="M39.53 15.11C39.64 14.74 39.58 14.49 39.47 14.13C39.44 14.03 39.41 13.94 39.38 13.84C39.35 13.76 39.31 13.68 39.28 13.6L39 13.5C39.05 14.08 39.21 14.59 39.41 15.13L39.54 15.11H39.53Z" fill="black"/>
<path d="M39.6299 21.2869C39.8599 20.8969 39.9199 20.5569 39.9499 20.1069C39.8766 19.9735 39.7966 19.8702 39.7099 19.7969C39.5699 20.2769 39.4799 20.7469 39.4199 21.2469L39.6299 21.2869Z" fill="black"/>
<path d="M3.22864 25.2438C3.24864 24.7738 3.18864 24.4737 2.94864 24.0737L2.64864 23.8438C2.48864 24.1037 2.48864 24.2038 2.54864 24.5138C2.57864 24.6038 2.59864 24.6937 2.62864 24.7837C2.68864 24.7537 2.75864 24.7237 2.81864 24.6937C2.78864 24.6337 2.75864 24.5637 2.72864 24.5037C2.99864 24.7137 2.99864 24.8138 3.07864 25.1338L3.22864 25.2537V25.2438Z" fill="black"/>
<path d="M6.19047 22.055C6.32047 21.675 6.21047 21.495 6.07047 21.125C5.85047 21.145 5.69047 21.165 5.48047 21.265C5.56047 21.565 5.64047 21.865 5.73047 22.175C5.8238 22.0083 5.9138 21.8417 6.00047 21.675L6.15047 21.795L6.03047 21.945L6.18047 22.065L6.19047 22.055Z" fill="black"/>
<path d="M9.1993 6.19312C9.1793 6.11312 9.1593 6.03312 9.1493 5.95312C9.02263 6.01312 8.89596 6.07313 8.7693 6.13313C8.7993 6.19313 8.8293 6.26312 8.8593 6.32312C8.7293 6.56312 8.5893 6.79312 8.4493 7.02312C8.4093 7.08979 8.3693 7.15646 8.3293 7.22313C8.2293 7.38313 8.1293 7.54313 8.0293 7.70312L8.0993 7.76312C8.2193 7.63312 8.3393 7.50313 8.4593 7.37313C8.5293 7.30313 8.5893 7.23312 8.6593 7.15312C9.02596 6.73979 9.20596 6.41646 9.1993 6.18312V6.19312Z" fill="black"/>
<path d="M11.5605 8.07375L11.1805 8.25375C11.1305 8.17375 11.0705 8.09375 11.0105 8.00375C11.1905 7.82375 11.3605 7.65375 11.5505 7.46375L11.4005 7.34375C11.0005 7.71708 10.7938 8.03375 10.7805 8.29375L10.9305 8.41375C10.7805 8.65375 10.6405 8.89375 10.4805 9.14375L10.5505 9.20375C10.9005 8.84375 11.2505 8.48375 11.5505 8.07375H11.5605Z" fill="black"/>
<path d="M27.0401 3.97031L26.8001 3.66031C26.9101 3.62031 27.0101 3.59031 27.1201 3.55031C26.6201 3.33031 26.1201 3.19031 25.5801 3.07031C25.7601 3.34031 25.8201 3.36031 26.1001 3.48031C26.1301 3.54031 26.1601 3.61031 26.1901 3.67031C26.3167 3.72365 26.4601 3.77698 26.6201 3.83031C26.7001 3.86031 26.7701 3.88031 26.8501 3.91031C26.9101 3.93031 26.9701 3.95031 27.0301 3.97031H27.0401Z" fill="black"/>
<path d="M21.6002 34.0312L21.7202 33.8813C21.6002 33.8313 21.4902 33.7813 21.3602 33.7213C21.4602 33.6413 21.5602 33.5613 21.6702 33.4813L21.6002 33.4213C21.7102 33.2313 21.8202 33.0413 21.9302 32.8413L21.8602 32.7812C21.7302 32.8912 21.6102 33.0013 21.4802 33.1213C21.4068 33.1813 21.3368 33.2446 21.2702 33.3113C21.2035 33.3779 21.0835 33.5113 20.9102 33.7113C21.0502 33.8313 21.2002 33.9479 21.3602 34.0613L21.6202 34.0312H21.6002Z" fill="black"/>
<path d="M38.4493 25.1931C38.4893 25.1231 38.5293 25.0631 38.5693 24.9931C38.5993 24.9431 38.6293 24.8931 38.6593 24.8431C38.5593 24.9231 38.4593 25.0031 38.3493 25.0831C38.2893 24.9531 38.2293 24.8331 38.1693 24.7031C38.1493 24.7531 38.1393 24.8031 38.1193 24.8531C37.9693 25.1331 37.7593 25.3131 37.5293 25.5231C37.6693 25.5931 37.8093 25.6631 37.9593 25.7331C38.2193 25.5631 38.2893 25.4531 38.4493 25.1931Z" fill="black"/>
<path d="M3.53055 9.95219C3.59055 9.83219 3.65055 9.71219 3.71055 9.58219C3.74055 9.51219 3.78055 9.44219 3.81055 9.37219C3.90055 9.16219 3.95055 8.97219 3.98055 8.74219C3.89055 8.75219 3.81055 8.76219 3.72055 8.77219C3.46722 9.14552 3.33055 9.47552 3.31055 9.76219L3.53055 9.93219V9.95219Z" fill="black"/>
<path d="M36.9702 9.18031C36.8802 8.90031 36.8102 8.77031 36.6302 8.54031C36.5902 8.49031 36.5502 8.44031 36.5102 8.38031C36.4302 8.28698 36.3135 8.18365 36.1602 8.07031C36.0802 8.12031 36.0002 8.18031 35.9102 8.24031C36.1202 8.52031 36.3402 8.81031 36.5602 9.10031L36.6802 8.95031L36.9802 9.18031H36.9702Z" fill="black"/>
<path d="M5.81016 19.6116L5.85016 19.4016L5.63016 19.2316L5.80016 19.0116L5.58016 18.8416C5.68016 18.7616 5.78016 18.6816 5.89016 18.6016C5.84016 18.5216 5.78016 18.4416 5.72016 18.3516L5.46016 18.3816C5.45016 18.5916 5.44016 18.8016 5.43016 19.0116C5.43016 19.1316 5.42016 19.2516 5.41016 19.3716C5.41016 19.4716 5.41016 19.5616 5.41016 19.6616L5.56016 19.7816C5.64016 19.7316 5.72016 19.6716 5.81016 19.6116Z" fill="black"/>
<path d="M37.3388 22.8534C37.4321 22.6601 37.5188 22.4468 37.5988 22.2134C37.5254 22.0401 37.4388 21.8934 37.3388 21.7734C37.2121 21.8334 37.1154 21.9401 37.0488 22.0934C36.9821 22.2468 37.0054 22.3901 37.1188 22.5234C37.1188 22.5234 37.1988 22.6134 37.2488 22.6634C37.2388 22.7334 37.2188 22.8034 37.2088 22.8734L37.3388 22.8534Z" fill="black"/>
<path d="M1.61 23.63L1.88 23.13L1.73 23.01C1.72 22.92 1.71 22.84 1.7 22.75C1.55 22.79 1.4 22.83 1.25 22.87C1.32333 23.25 1.44333 23.5033 1.61 23.63Z" fill="black"/>
<path d="M3.99875 27.6356C3.99875 27.3156 3.93875 27.2256 3.72875 26.9756C3.64875 26.9056 3.56875 26.8356 3.47875 26.7656C3.38875 26.7756 3.30875 26.7856 3.21875 26.7956C3.27875 26.9156 3.32875 27.0456 3.38875 27.1656C3.41875 27.2356 3.44875 27.3056 3.48875 27.3756C3.54875 27.4956 3.62875 27.5923 3.72875 27.6656L3.84875 27.5156L3.99875 27.6356Z" fill="black"/>
<path d="M2.37906 29.2534L2.64906 28.7534C2.49906 28.5934 2.33906 28.4334 2.18906 28.2734L2.06906 28.4234L1.78906 28.3234C1.97906 28.6334 2.17906 28.9434 2.37906 29.2534Z" fill="black"/>
<path d="M11.7591 31.1606L11.9891 30.8606L10.4291 29.6406L10.3691 29.7106L11.4891 30.5806L11.3691 30.7306C11.4991 30.8706 11.6291 31.0106 11.7591 31.1506V31.1606Z" fill="black"/>
<path d="M37.6404 17.2372L37.8704 16.9372L37.5004 16.6472C37.5304 16.5572 37.5704 16.4572 37.6004 16.3672C37.4504 16.4072 37.3004 16.4472 37.1504 16.4872C37.1804 16.7072 37.2004 16.9272 37.2304 17.1472C37.3204 17.1772 37.4204 17.2172 37.5104 17.2472C37.5404 17.1572 37.5804 17.0572 37.6104 16.9672L37.6404 17.2272V17.2372Z" fill="black"/>
<path d="M1.20938 18.775C1.23938 18.615 1.25938 18.465 1.28938 18.305C1.30271 18.2183 1.31604 18.1317 1.32937 18.045C1.34271 17.9583 1.31937 17.8183 1.25937 17.625C0.919375 17.995 0.869375 18.255 0.859375 18.755C0.919375 18.725 0.989376 18.695 1.04938 18.665L1.19938 18.785L1.20938 18.775Z" fill="black"/>
<path d="M27.6604 4.10687L27.7804 3.95687C27.5871 3.71687 27.4137 3.58021 27.2604 3.54688L27.1404 3.69687C26.9804 3.64687 26.8204 3.60687 26.6504 3.55687C26.7904 3.84687 27.0404 3.92687 27.3204 4.07687L27.4404 3.92687L27.6604 4.09687V4.10687Z" fill="black"/>
<path d="M31.8097 3.98063L31.8697 3.91063L31.1997 3.39062C31.0864 3.53729 30.9964 3.70396 30.9297 3.89062C31.1197 4.00062 31.3097 4.11063 31.5097 4.22063L31.6297 4.07062C31.5097 4.02062 31.3997 3.97063 31.2697 3.91063L31.4397 3.69063L31.8097 3.98063Z" fill="black"/>
<path d="M10.7798 37.8053L10.8998 37.6553L10.7498 37.5353L10.8698 37.3853C10.9398 37.3953 11.0098 37.4153 11.0798 37.4253C10.9332 37.2653 10.7798 37.1053 10.6198 36.9453C10.5298 36.9553 10.4498 36.9653 10.3598 36.9753C10.4398 37.1153 10.5298 37.2653 10.6198 37.4153C10.4498 37.4353 10.2698 37.4553 10.0898 37.4853L10.3898 37.7153L10.5098 37.5653L10.8098 37.7953L10.7798 37.8053Z" fill="black"/>
<path d="M37.2992 15.0506C37.2592 14.6706 37.2092 14.3006 37.0892 13.9306L36.8792 13.8906C36.8992 13.9606 36.9292 14.0306 36.9492 14.1006C37.0026 14.2673 36.9892 14.444 36.9092 14.6306C36.8392 14.6206 36.7692 14.6006 36.6992 14.5906C36.7392 14.6406 36.7792 14.6806 36.8192 14.7306C36.8592 14.784 36.8992 14.8406 36.9392 14.9006C36.9292 14.9706 36.9092 15.0406 36.8992 15.1106C36.9792 15.0606 37.0592 15.0006 37.1492 14.9406L37.2992 15.0606V15.0506Z" fill="black"/>
<path d="M36.8191 24.5947L36.7291 24.4047L36.4991 24.7047L36.3491 24.5847C36.3791 24.4947 36.4191 24.3947 36.4491 24.3047C36.3691 24.4147 36.2991 24.5347 36.2191 24.6447C36.1791 24.7047 36.1391 24.7747 36.0891 24.8347C36.0291 24.968 36.0158 25.168 36.0491 25.4347L36.8191 24.5947Z" fill="black"/>
<path d="M33.7705 29.7531C33.7905 29.6931 33.8138 29.6365 33.8405 29.5831C33.8671 29.5298 33.9605 29.4398 34.1205 29.3131C34.1505 29.2231 34.1905 29.1231 34.2205 29.0331C34.0805 29.0031 33.9505 28.9831 33.8105 28.9531C33.7005 29.1431 33.5905 29.3331 33.4805 29.5331L33.7805 29.7631L33.7705 29.7531Z" fill="black"/>
<path d="M13.6691 2.42344L13.7091 2.21344C13.8091 1.93344 13.8491 1.86344 14.1191 1.69344L13.8991 1.52344C13.8291 1.59344 13.7491 1.66344 13.6791 1.74344C13.4991 1.92344 13.3191 2.08344 13.1191 2.23344C13.1991 2.33344 13.2791 2.43344 13.3591 2.54344C13.4691 2.50344 13.5691 2.47344 13.6791 2.43344L13.6691 2.42344Z" fill="black"/>
<path d="M6.05867 22.6763L6.21867 22.3162L6.06867 22.1962L6.18867 22.0462L6.03867 21.9263L6.15867 21.7762L6.00867 21.6562C5.822 21.9696 5.74201 22.2263 5.76867 22.4263L6.06867 22.6562L6.05867 22.6763Z" fill="black"/>
<path d="M4.26023 28.6725C4.26023 28.5625 4.28024 28.4525 4.28024 28.3325C4.21024 28.3025 4.15023 28.2725 4.08023 28.2425C3.85023 28.1225 3.75024 28.0225 3.61024 27.8125C3.56024 27.9325 3.51024 28.0425 3.45024 28.1725C3.38024 28.1625 3.31023 28.1425 3.24023 28.1325L3.46024 28.3025C3.45024 28.3725 3.43023 28.4425 3.42023 28.5125C3.50023 28.4625 3.58023 28.4025 3.67023 28.3425C3.86023 28.4525 4.05023 28.5625 4.25023 28.6725H4.26023Z" fill="black"/>
<path d="M29.2891 4.77531C29.2891 4.66531 29.3091 4.55531 29.3091 4.43531C29.2191 4.40531 29.1191 4.36531 29.0291 4.33531L28.9091 4.48531L28.5391 4.19531C28.4591 4.24531 28.3791 4.30531 28.2891 4.36531C28.5291 4.51531 28.7691 4.65531 29.0191 4.81531L29.1391 4.66531L29.2891 4.78531V4.77531Z" fill="black"/>
<path d="M38.8991 22.9913L39.2491 22.5413L39.0291 22.3713L38.8591 22.5913C38.7791 22.4913 38.6991 22.3912 38.6191 22.2812C38.5391 22.3313 38.4591 22.3913 38.3691 22.4513C38.5391 22.6813 38.6791 22.8113 38.9091 22.9913H38.8991Z" fill="black"/>
<path d="M1.78961 14.3328C1.99961 13.9528 2.11961 13.5528 2.23961 13.1328C2.02628 13.2061 1.87961 13.2928 1.79961 13.3928L1.94961 13.5128L1.59961 13.9628L1.74961 14.0828L1.62961 14.2328L1.77961 14.3528L1.78961 14.3328Z" fill="black"/>
<path d="M12.5691 2.73719C12.6025 2.65719 12.6358 2.57385 12.6691 2.48719L12.5191 2.36719C12.1591 2.58719 11.9425 2.81719 11.8691 3.05719C12.1958 3.05719 12.4291 2.95052 12.5691 2.73719Z" fill="black"/>
<path d="M6.71977 24.7441C6.78977 24.5541 6.84977 24.3741 6.91977 24.1841C6.74977 24.0941 6.58977 24.0041 6.41977 23.9141C6.36977 24.0341 6.31977 24.1441 6.25977 24.2741C6.40977 24.4341 6.56977 24.5941 6.71977 24.7541V24.7441Z" fill="black"/>
<path d="M16.7295 33.2369C16.6561 33.0235 16.5695 32.8769 16.4695 32.7969C16.3895 32.8469 16.3095 32.9069 16.2195 32.9669C16.0395 32.9969 15.8695 33.0169 15.6895 33.0369C15.7428 33.1435 15.8228 33.2469 15.9295 33.3469C16.1561 33.3335 16.3761 33.3069 16.5895 33.2669L16.7195 33.2469L16.7295 33.2369Z" fill="black"/>
<path d="M18.0402 4.0372L18.0802 3.8272C17.8402 3.6872 17.7502 3.6672 17.4702 3.7272C17.4002 3.7472 17.3302 3.7772 17.2602 3.7972C17.2336 3.9372 17.2336 4.09387 17.2602 4.2672C17.5202 4.1872 17.7702 4.1172 18.0402 4.0372Z" fill="black"/>
<path d="M5.99942 24.2934L6.15942 23.9334C5.98942 23.6934 5.92942 23.6334 5.63942 23.5234C5.57275 23.7101 5.57608 23.8834 5.64942 24.0434C5.72275 24.2034 5.83942 24.2868 5.99942 24.2934Z" fill="black"/>
<path d="M7.66898 25.8344L7.70898 25.6244C7.48898 25.4944 7.27898 25.3644 7.05898 25.2344C7.02898 25.3244 6.98898 25.4244 6.95898 25.5144L7.47898 25.9244L7.66898 25.8344Z" fill="black"/>
<path d="M4.91906 8.76219L5.32906 8.24219C4.96906 8.24219 4.83906 8.27219 4.57906 8.52219C4.51906 8.61219 4.44906 8.70219 4.38906 8.79219C4.31906 8.88219 4.25906 8.97219 4.18906 9.06219C4.13906 9.13219 4.08906 9.20219 4.03906 9.27219L4.10906 9.33219C4.32906 9.10219 4.53906 8.88219 4.75906 8.64219L4.90906 8.76219H4.91906Z" fill="black"/>
<path d="M7.60875 13.6028C7.82875 13.2228 8.04875 12.8428 8.26875 12.4428C8.15875 12.4828 8.05875 12.5128 7.94875 12.5528L7.72875 12.3828L7.60875 12.5328C7.65875 12.6128 7.71875 12.6928 7.77875 12.7828C7.84875 12.7928 7.91875 12.8128 7.98875 12.8228C7.91875 12.8828 7.84875 12.9428 7.78875 13.0028C7.64208 13.1428 7.53542 13.3061 7.46875 13.4928L7.61875 13.6128L7.60875 13.6028Z" fill="black"/>
<path d="M14.2187 5.72156L14.0687 5.60156C13.9587 5.71156 13.8487 5.81156 13.7387 5.92156C13.6787 5.98156 13.6187 6.04156 13.5587 6.10156C13.4587 6.22156 13.402 6.3949 13.3887 6.62156C13.7887 6.36156 14.0187 6.15156 14.2187 5.71156V5.72156Z" fill="black"/>
<path d="M22.5205 32.2322L22.3705 32.1122L22.6605 31.7422C22.6105 31.6622 22.5505 31.5822 22.4905 31.4922C22.3905 31.5989 22.2938 31.7222 22.2005 31.8622L22.2505 32.2622C22.1638 32.4422 22.0738 32.6089 21.9805 32.7622L22.0505 32.8222C22.3305 32.5822 22.4838 32.3822 22.5105 32.2222L22.5205 32.2322Z" fill="black"/>
<path d="M3.96047 10.1659L4.48047 9.49594C4.36047 9.44594 4.25047 9.39594 4.12047 9.33594C3.99047 9.55594 3.86047 9.76594 3.73047 9.98594L3.95047 10.1559L3.96047 10.1659Z" fill="black"/>
<path d="M1.77891 28.1806C1.85224 28.0406 1.92224 27.8973 1.9889 27.7506C1.89557 27.6306 1.79224 27.5106 1.67891 27.3906L1.41891 27.4206C1.40891 27.4906 1.38891 27.5606 1.37891 27.6306C1.50891 27.8206 1.64891 28.0006 1.78891 28.1806H1.77891Z" fill="black"/>
<path d="M8.83008 36.1759L8.87008 35.9659C8.79008 35.8659 8.71008 35.7559 8.63008 35.6559C8.59675 35.5493 8.56008 35.4426 8.52008 35.3359C8.38008 35.4159 8.23008 35.5059 8.08008 35.5959L8.82008 36.1759H8.83008Z" fill="black"/>
<path d="M19.3404 32.6369C19.0804 32.4769 18.9804 32.4769 18.6704 32.5369C18.5804 32.5669 18.4904 32.5869 18.4004 32.6169C18.4704 32.6469 18.5404 32.6769 18.6104 32.7069C18.6804 32.7469 18.7504 32.7869 18.8304 32.8269C18.8404 32.9169 18.8504 32.9969 18.8604 33.0869C19.0937 32.8869 19.2537 32.7336 19.3404 32.6269V32.6369Z" fill="black"/>
<path d="M18.8404 0.230671C18.5804 0.0706711 18.4804 0.0706707 18.1704 0.130671C18.0804 0.160671 17.9904 0.180671 17.9004 0.210671C17.9504 0.290671 18.0104 0.370671 18.0704 0.460671C18.1404 0.470671 18.2104 0.490671 18.2804 0.500671L18.4004 0.350671L18.5504 0.470671C18.6771 0.410671 18.7804 0.330671 18.8604 0.230671H18.8404Z" fill="black"/>
<path d="M39.7602 18.0444C39.8802 17.7044 39.9102 17.5944 39.7902 17.2344C39.6635 17.2944 39.5368 17.3544 39.4102 17.4144C39.5302 17.7477 39.6468 17.9577 39.7602 18.0444Z" fill="black"/>
<path d="M22.4698 2.93375L22.2298 2.62375L22.1098 2.77375C21.8698 2.72375 21.6498 2.67375 21.4198 2.59375C21.3698 2.71375 21.3198 2.82375 21.2598 2.95375C21.6598 2.95375 22.0598 2.94375 22.4698 2.93375Z" fill="black"/>
<path d="M3.48016 30.4513L3.64016 30.0913C3.57016 30.0813 3.50016 30.0613 3.43016 30.0513L3.31016 30.2013C3.25016 30.1279 3.19016 30.0579 3.13016 29.9913C3.06016 29.9213 2.99016 29.8513 2.92016 29.7812C2.83016 29.7912 2.75016 29.8013 2.66016 29.8113C2.89349 30.1713 3.10682 30.3812 3.30016 30.4412C3.36016 30.4412 3.42016 30.4412 3.48016 30.4412V30.4513Z" fill="black"/>
<path d="M37.4893 26.1953C37.4093 26.2453 37.3293 26.3053 37.2393 26.3653L37.0893 26.2453C36.8993 26.5353 36.7193 26.8253 36.5293 27.1253L36.5993 27.1853C37.0293 26.9053 37.2493 26.6753 37.4793 26.2053L37.4893 26.1953Z" fill="black"/>
<path d="M2.90945 10.9028L3.36945 10.3028L3.14945 10.1328L2.68945 10.7328L2.90945 10.9028Z" fill="black"/>
<path d="M8.12883 12.3337C8.15883 12.2437 8.19883 12.1438 8.22883 12.0538C8.08883 11.9838 7.94883 11.9138 7.79883 11.8438C7.71883 11.8938 7.63883 11.9538 7.54883 12.0138C7.63883 12.0438 7.73883 12.0838 7.82883 12.1138C7.77883 12.2338 7.72883 12.3438 7.66883 12.4738C7.81549 12.4471 7.96549 12.4071 8.11883 12.3538L8.12883 12.3337Z" fill="black"/>
<path d="M17.1202 3.67031C17.0302 3.64031 16.9302 3.60031 16.8402 3.57031L16.7202 3.72031C16.6602 3.72031 16.5902 3.72031 16.5202 3.73031C16.4502 3.74031 16.3902 3.75031 16.3202 3.77031C16.2535 3.89031 16.2002 4.01031 16.1602 4.13031C16.6468 4.01698 16.9635 3.86365 17.1102 3.67031H17.1202Z" fill="black"/>
<path d="M5.94969 21.2703L6.06969 21.1203C5.93969 20.9403 5.79969 20.7503 5.65969 20.5703C5.59969 20.6703 5.54635 20.7903 5.49969 20.9303C5.45302 21.0703 5.51302 21.197 5.67969 21.3103L5.93969 21.2803L5.94969 21.2703Z" fill="black"/>
<path d="M2.23984 27.5866C2.21984 27.4132 2.13318 27.2632 1.97984 27.1366C1.90984 27.0866 1.82984 27.0366 1.75984 26.9766L1.58984 27.1966C1.71984 27.3366 1.84984 27.4766 1.97984 27.6166L2.09984 27.4666L2.24984 27.5866H2.23984Z" fill="black"/>
<path d="M27.9002 2.25156L28.1302 1.95156L27.6802 1.60156C27.6202 1.6349 27.5569 1.6649 27.4902 1.69156C27.5002 1.78156 27.5102 1.86156 27.5202 1.95156C27.5902 1.96156 27.6602 1.98156 27.7302 1.99156L27.6102 2.14156C27.7002 2.17156 27.8002 2.21156 27.8902 2.24156L27.9002 2.25156Z" fill="black"/>
<path d="M16.1494 33.97C16.2294 33.87 16.266 33.7533 16.2594 33.62C16.2527 33.4867 16.1627 33.3633 15.9894 33.25C15.8594 33.31 15.7394 33.37 15.6094 33.43L15.9794 33.72L15.8594 33.87C15.9494 33.9 16.0494 33.94 16.1394 33.97H16.1494Z" fill="black"/>
<path d="M37.3097 15.6625C37.3164 15.2825 37.2597 14.9992 37.1397 14.8125C37.0597 14.9392 36.9897 15.0825 36.9297 15.2425C37.003 15.4092 37.0897 15.5558 37.1897 15.6825L37.3197 15.6625H37.3097Z" fill="black"/>
<path d="M36.3795 29.1544C36.6395 28.8277 36.8062 28.561 36.8795 28.3544L36.7295 28.2344C36.6495 28.3244 36.5695 28.4144 36.4895 28.5144C36.4495 28.5644 36.3995 28.6144 36.3595 28.6744C36.3295 28.7244 36.2995 28.7844 36.2695 28.8344C36.3095 28.9444 36.3395 29.0444 36.3795 29.1544Z" fill="black"/>
<path d="M7.09867 27.1813L7.25867 26.8213L6.88867 26.5312L6.65867 26.8313L7.10867 27.1813H7.09867ZM6.53867 26.9813C6.552 26.9146 6.56534 26.8446 6.57867 26.7713C6.592 26.6979 6.52867 26.7279 6.38867 26.8613L6.53867 26.9813Z" fill="black"/>
<path d="M9.51039 37.2972L9.57039 37.2272L8.83039 36.6472C8.86039 36.5572 8.90039 36.4572 8.93039 36.3672C8.76039 36.3872 8.58039 36.4072 8.40039 36.4372L9.52039 37.3072L9.51039 37.2972Z" fill="black"/>
<path d="M36.8697 23.9159C36.9797 23.7259 37.0897 23.5359 37.1997 23.3359C37.1497 23.2559 37.0897 23.1759 37.0297 23.0859L36.6797 23.5359L36.8297 23.6559L36.7097 23.8059L36.8597 23.9259L36.8697 23.9159Z" fill="black"/>
<path d="M30.7705 32.0744C30.8039 31.8877 30.8272 31.7044 30.8405 31.5244C30.7705 31.5144 30.7005 31.4944 30.6305 31.4844L30.4605 31.7044C30.4605 31.7044 30.3705 31.7144 30.3305 31.7244C30.3305 31.8344 30.3105 31.9444 30.3105 32.0644L30.5305 32.2344C30.6105 32.1844 30.6905 32.1244 30.7805 32.0644L30.7705 32.0744Z" fill="black"/>
<path d="M35.5105 28.1244C35.6905 27.8144 35.6605 27.5944 35.6005 27.2344C35.3738 27.4877 35.2505 27.7244 35.2305 27.9444C35.2305 28.0144 35.2405 28.0844 35.2505 28.1544L35.3705 28.0044L35.5205 28.1244H35.5105Z" fill="black"/>
<path d="M2.64984 19.0613L2.76984 18.9112C2.71984 18.8312 2.65984 18.7512 2.59984 18.6612L2.82984 18.3612C2.68984 18.3312 2.55984 18.3112 2.41984 18.2812C2.37984 18.4012 2.35318 18.5379 2.33984 18.6912C2.43984 18.8312 2.54318 18.9513 2.64984 19.0513V19.0613Z" fill="black"/>
<path d="M13.5293 5.54688C13.4793 5.46688 13.4193 5.38688 13.3593 5.29688L12.7793 6.03687L12.9293 6.15687C13.2093 6.02687 13.3393 5.78687 13.5293 5.54688Z" fill="black"/>
<path d="M6.92977 16.1863L7.13977 15.1562C7.04977 15.1662 6.96977 15.1763 6.87977 15.1863L7.02977 15.3063C6.94977 15.3563 6.86977 15.4163 6.77977 15.4763C6.77977 15.5863 6.75977 15.6963 6.75977 15.8163L6.90977 15.9363L6.78977 16.0863L6.93977 16.2063L6.92977 16.1863Z" fill="black"/>
<path d="M17.3787 4.11423L17.2887 3.92423C17.062 3.91089 16.882 3.95423 16.7487 4.05423C16.6154 4.15423 16.562 4.20756 16.5887 4.21423C16.7354 4.27423 16.8987 4.32089 17.0787 4.35423C17.1987 4.28089 17.302 4.2009 17.3887 4.11423H17.3787Z" fill="black"/>
<path d="M34.1995 9.06656C34.2462 8.90656 34.2929 8.74323 34.3395 8.57656C34.2495 8.54656 34.1495 8.50656 34.0595 8.47656L33.7695 8.84656C33.9095 8.91656 34.0495 8.98656 34.1995 9.05656V9.06656Z" fill="black"/>
<path d="M39.7894 17.2328C39.7427 16.8061 39.686 16.5228 39.6194 16.3828C39.5294 16.3928 39.4494 16.4028 39.3594 16.4128C39.4094 16.4928 39.4694 16.5728 39.5294 16.6628L39.4094 16.8128C39.4894 16.9528 39.5794 17.1028 39.6694 17.2528L39.7994 17.2328H39.7894Z" fill="black"/>
<path d="M39.4491 20.9066C39.5491 20.5999 39.5658 20.3732 39.4991 20.2266L39.3291 20.4466L39.1191 20.4066C39.1391 20.5366 39.1491 20.6666 39.1691 20.8066C39.2591 20.8366 39.3591 20.8766 39.4491 20.9066Z" fill="black"/>
<path d="M3.69883 7.57469L4.15883 6.97469L3.93883 6.80469C3.80883 7.02469 3.67883 7.23469 3.54883 7.45469L3.69883 7.57469Z" fill="black"/>
<path d="M14.8789 1.32969L14.7889 1.13969C14.7989 1.06969 14.8189 0.999688 14.8289 0.929688L14.6589 1.14969C14.5389 1.09969 14.4289 1.04969 14.2989 0.989688L14.1289 1.20969L14.4289 1.43969C14.5289 1.35969 14.6289 1.27969 14.7389 1.19969L14.8889 1.31969L14.8789 1.32969Z" fill="black"/>
<path d="M15.29 1.88969L15.33 1.67969C15.25 1.70969 15.17 1.74969 15.09 1.77969C14.9167 1.85969 14.7567 1.87969 14.61 1.83969C14.4833 1.93969 14.3633 2.04302 14.25 2.14969C14.28 2.20969 14.31 2.27969 14.34 2.33969C14.5 2.26969 14.66 2.19969 14.81 2.12969C14.9 2.08969 14.99 2.04969 15.08 2.00969C15.1467 1.96969 15.2167 1.92969 15.29 1.88969Z" fill="black"/>
<path d="M2.38047 21.7238L2.31047 21.1937C2.22047 21.1637 2.12047 21.1237 2.03047 21.0938C2.01047 21.3137 2.00047 21.5438 1.98047 21.7738C2.06047 21.7238 2.14047 21.6638 2.23047 21.6038L2.38047 21.7238Z" fill="black"/>
<path d="M5.85031 19.4056C5.97698 18.959 6.00698 18.6623 5.94031 18.5156L5.82031 18.6656C5.75031 18.6556 5.68031 18.6356 5.61031 18.6256C5.60031 18.6956 5.58031 18.7656 5.57031 18.8356L5.79031 19.0056L5.62031 19.2256L5.84031 19.3956L5.85031 19.4056Z" fill="black"/>
<path d="M23.0189 3.00375L23.0989 2.59375C22.8989 2.59375 22.6989 2.59375 22.4989 2.59375L22.3789 2.74375C22.7056 2.92375 22.9189 3.01042 23.0189 3.00375Z" fill="black"/>
<path d="M24.2093 2.85344C24.2393 2.76344 24.2793 2.66344 24.3093 2.57344C24.2393 2.56344 24.1693 2.54344 24.0993 2.53344L23.9793 2.68344L23.8293 2.56344L23.7093 2.71344C23.8693 2.76344 24.0293 2.80344 24.1993 2.85344H24.2093ZM23.6693 2.78344C23.6593 2.69344 23.6493 2.61344 23.6393 2.52344C23.5193 2.62344 23.3993 2.73344 23.2793 2.83344C23.4193 2.8601 23.5526 2.84344 23.6793 2.78344H23.6693Z" fill="black"/>
<path d="M4.99984 32.9509L4.90984 32.7609C4.93984 32.6709 4.97984 32.5709 5.00984 32.4809L4.33984 31.9609C4.37984 32.2909 4.50984 32.4509 4.69984 32.7209L4.99984 32.9509Z" fill="black"/>
<path d="M37.9597 26.2066C37.9897 26.1166 38.0297 26.0166 38.0597 25.9266C38.1697 25.7766 38.2897 25.6266 38.4097 25.4766C38.0697 25.5166 37.9597 25.6566 37.7197 25.8966C37.7097 25.9666 37.6897 26.0366 37.6797 26.1066C37.7697 26.1366 37.8697 26.1766 37.9597 26.2066Z" fill="black"/>
<path d="M1.37008 16.8709C1.41675 16.7109 1.46341 16.5476 1.51008 16.3809L1.29008 16.2109C1.21675 16.3443 1.14674 16.4876 1.08008 16.6409C1.11008 16.7009 1.14008 16.7709 1.17008 16.8309L1.38008 16.8709H1.37008Z" fill="black"/>
<path d="M11.1298 4.63438L11.2498 4.48438C11.1998 4.40438 11.1398 4.32438 11.0798 4.23438C10.9098 4.25437 10.7298 4.27438 10.5498 4.30438C10.5398 4.37438 10.5198 4.44438 10.5098 4.51438C10.8231 4.60771 11.0298 4.64771 11.1298 4.63438Z" fill="black"/>
<path d="M2.29938 17.8341L2.24937 17.4341C2.13604 17.4274 2.02271 17.4207 1.90937 17.4141C1.88937 17.6341 1.87937 17.8641 1.85938 18.0941C1.91937 18.0641 1.98938 18.0341 2.04938 18.0041C2.07938 17.9141 2.11937 17.8141 2.14937 17.7241L2.29938 17.8441V17.8341Z" fill="black"/>
<path d="M0.420547 21.6372C0.420547 21.4439 0.420547 21.2439 0.420547 21.0372L0.200548 20.8672C0.153882 21.0272 0.107214 21.1905 0.0605469 21.3572L0.430548 21.6472L0.420547 21.6372Z" fill="black"/>
<path d="M11.7888 7.77156L12.3088 7.10156C12.0421 7.1349 11.8521 7.2149 11.7388 7.34156C11.6255 7.46823 11.5855 7.52823 11.6188 7.52156C11.6688 7.60156 11.7288 7.68156 11.7888 7.77156Z" fill="black"/>
<path d="M0.850391 22.9206L0.780392 22.3906C0.613725 22.504 0.497058 22.654 0.430391 22.8406C0.340391 22.8106 0.240391 22.7706 0.150391 22.7406C0.417057 22.8873 0.647058 22.9473 0.840391 22.9206H0.850391Z" fill="black"/>
<path d="M2.2593 22.3472C2.3293 22.1572 2.3893 21.9772 2.4593 21.7872L2.2393 21.6172C2.1693 21.7572 2.0993 21.8972 2.0293 22.0472L2.2693 22.3572L2.2593 22.3472Z" fill="black"/>
<path d="M2.46992 22.9806C2.51659 22.8206 2.56326 22.6573 2.60992 22.4906C2.51992 22.4606 2.41992 22.4206 2.32992 22.3906C2.27992 22.5106 2.22992 22.6206 2.16992 22.7506L2.46992 22.9806Z" fill="black"/>
<path d="M2.94969 27.9016C2.97969 27.8116 3.01969 27.7116 3.04969 27.6216C2.87969 27.5316 2.71969 27.4416 2.54969 27.3516L2.42969 27.5016C2.53969 27.6616 2.64969 27.8316 2.75969 28.0016L2.94969 27.9116V27.9016Z" fill="black"/>
<path d="M23.6401 3.12219C23.6701 3.03219 23.7101 2.93219 23.7401 2.84219C23.6501 2.81219 23.5501 2.77219 23.4601 2.74219L23.3401 2.89219C23.2501 2.90219 23.1701 2.91219 23.0801 2.92219C23.1601 3.02219 23.2401 3.12219 23.3201 3.23219C23.4301 3.19219 23.5301 3.16219 23.6401 3.12219Z" fill="black"/>
<path d="M25.2794 3.32094C25.166 3.15427 25.0494 3.05427 24.9294 3.02094C24.7394 3.00094 24.5494 2.98094 24.3594 2.96094C24.5594 3.26094 24.6694 3.28094 25.0094 3.35094L25.2694 3.32094H25.2794Z" fill="black"/>
<path d="M13.7392 38.9131C13.6892 38.8331 13.6292 38.7531 13.5692 38.6631C13.5792 38.5931 13.5992 38.5231 13.6092 38.4531C13.3892 38.4831 13.1692 38.5031 12.9492 38.5331L13.0392 38.7231C13.2692 38.7931 13.4992 38.8531 13.7292 38.9031L13.7392 38.9131Z" fill="black"/>
<path d="M37.0198 13.8819L37.0598 13.6719C36.8698 13.5819 36.6998 13.5119 36.4998 13.4719C36.5298 13.3819 36.5698 13.2819 36.5998 13.1919C36.4864 13.1852 36.3731 13.1785 36.2598 13.1719C36.2798 13.3185 36.3198 13.4685 36.3798 13.6219C36.4398 13.7752 36.6031 13.8219 36.8698 13.7619L37.0198 13.8819Z" fill="black"/>
<path d="M38.9603 13.8444C39.0203 13.7377 39.0736 13.6177 39.1203 13.4844C39.0703 13.4044 39.0103 13.3244 38.9503 13.2344C38.8236 13.2944 38.697 13.3544 38.5703 13.4144C38.6103 13.5244 38.6403 13.6244 38.6803 13.7344C38.7703 13.7644 38.8703 13.8044 38.9603 13.8344V13.8444Z" fill="black"/>
<path d="M35.0104 28.9244L34.9204 28.7344L34.8004 28.8844L34.3904 28.8044C34.4404 28.8844 34.5004 28.9644 34.5604 29.0544L34.1504 29.5744L34.2204 29.6344C34.2604 29.5944 34.3004 29.551 34.3404 29.5044C34.3804 29.4577 34.4337 29.401 34.5004 29.3344C34.5504 29.2744 34.6104 29.2244 34.6604 29.1644C34.7537 29.0644 34.8671 28.9877 35.0004 28.9344L35.0104 28.9244Z" fill="black"/>
<path d="M8.94992 6.04406L8.98992 5.83406L8.76992 5.66406L8.41992 6.11406C8.44992 6.17406 8.47992 6.24406 8.50992 6.30406C8.65659 6.22406 8.80326 6.1374 8.94992 6.04406Z" fill="black"/>
<path d="M11.5998 7.86312L11.2398 7.70312L11.0098 8.00312C11.0698 8.13312 11.1298 8.25313 11.1898 8.38313C11.4298 8.18979 11.5664 8.01646 11.5998 7.86312Z" fill="black"/>
<path d="M2.2293 24.8328C2.21596 24.6661 2.19263 24.4895 2.1593 24.3028L1.9393 24.1328C1.8893 24.2528 1.8393 24.3628 1.7793 24.4928L2.2293 24.8428V24.8328Z" fill="black"/>
<path d="M28.0289 4.39031C27.9789 4.31031 27.9189 4.23031 27.8589 4.14031L27.9789 3.99031C28.0489 4.00031 28.1189 4.02031 28.1889 4.03031C28.0489 3.96031 27.9089 3.89031 27.7589 3.82031C27.7289 3.91031 27.6889 4.01031 27.6589 4.10031C27.5689 4.07031 27.4689 4.03031 27.3789 4.00031L28.0289 4.39031Z" fill="black"/>
<path d="M11.4904 30.5922L11.0404 30.2422C10.9937 30.4022 10.9471 30.5655 10.9004 30.7322L11.1204 30.9022C11.2871 30.7889 11.4071 30.6855 11.4804 30.5922H11.4904Z" fill="black"/>
<path d="M37.9805 20.4866L38.1005 20.3366C37.9405 20.1366 37.7805 19.9366 37.6205 19.7266C37.5738 19.8866 37.5271 20.0499 37.4805 20.2166C37.6505 20.3066 37.8105 20.3966 37.9805 20.4866Z" fill="black"/>
<path d="M34.6302 28.0337L35.0402 27.5138L34.8202 27.3438C34.7102 27.5337 34.6002 27.7238 34.4902 27.9238L34.6402 28.0438L34.6302 28.0337Z" fill="black"/>
<path d="M2.89992 14.6069C3.00992 14.2969 2.97992 14.1169 2.92992 13.7969C2.74992 14.0269 2.71992 14.1569 2.66992 14.4369L2.88992 14.6069H2.89992Z" fill="black"/>
<path d="M11.9202 4.53625C11.9502 4.44625 11.9902 4.34625 12.0202 4.25625C11.9302 4.22625 11.8302 4.18625 11.7402 4.15625C11.5735 4.26958 11.4735 4.39625 11.4402 4.53625C11.4402 4.59625 11.4202 4.66625 11.4102 4.73625C11.4702 4.70625 11.5302 4.67625 11.5902 4.64625C11.7102 4.57959 11.8202 4.54292 11.9202 4.53625Z" fill="black"/>
<path d="M2.41039 20.9141L2.57039 20.5541C2.35039 20.4241 2.14039 20.2941 1.92039 20.1641C1.92039 20.2741 1.90039 20.3841 1.90039 20.5041C2.06039 20.5541 2.22039 20.5941 2.39039 20.6441L2.27039 20.7941L2.42039 20.9141H2.41039Z" fill="black"/>
<path d="M1.35914 22.1228L1.58914 21.8228C1.50914 21.6828 1.41914 21.5328 1.32914 21.3828C1.25914 21.5228 1.18914 21.6628 1.11914 21.8128L1.35914 22.1228Z" fill="black"/>
<path d="M15.6402 4.77031C15.6735 4.68365 15.7102 4.59698 15.7502 4.51031C15.7202 4.45031 15.6902 4.38031 15.6602 4.32031C15.3402 4.55031 15.2402 4.73031 15.1602 5.12031C15.3735 5.04698 15.5335 4.93031 15.6402 4.77031Z" fill="black"/>
<path d="M2.69938 11.7319C2.72604 11.6652 2.75271 11.5952 2.77938 11.5219C2.68938 11.4919 2.58937 11.4519 2.49937 11.4219C2.36937 11.6419 2.23937 11.8519 2.10938 12.0719C2.41938 12.0219 2.52938 12.0019 2.69938 11.7219V11.7319Z" fill="black"/>
<path d="M1.99984 13.3041L2.34984 12.8541C2.31984 12.7941 2.28984 12.7241 2.25984 12.6641C2.11984 12.7941 1.97984 12.9241 1.83984 13.0541C1.88984 13.1341 1.94984 13.2141 2.00984 13.3041H1.99984Z" fill="black"/>
<path d="M3.24055 27.5334C3.27055 27.4434 3.31055 27.3434 3.34055 27.2534L3.04055 27.0234L2.81055 27.3234C2.95055 27.3934 3.09055 27.4634 3.24055 27.5334Z" fill="black"/>
<path d="M30.8198 3.57094L30.9398 3.42094L30.3398 2.96094C30.3665 3.1076 30.4065 3.2576 30.4598 3.41094C30.5132 3.56427 30.6332 3.6176 30.8198 3.57094Z" fill="black"/>
<path d="M13.08 31.4766L13.12 31.2666L12.75 30.9766C12.67 31.0266 12.59 31.0866 12.5 31.1466C12.65 31.2666 12.8 31.3766 12.95 31.4966L13.08 31.4766Z" fill="black"/>
<path d="M33.2995 8.36055L33.2695 8.10055C33.3495 8.05055 33.4295 7.99055 33.5195 7.93055C33.2395 7.78055 33.0695 7.76055 32.7695 7.82055L33.3095 8.36055H33.2995Z" fill="black"/>
<path d="M21.8198 33.6028L22.2798 33.0028L22.1298 32.8828C21.8698 33.0028 21.7598 33.1928 21.5898 33.4228L21.8098 33.5928L21.8198 33.6028Z" fill="black"/>
<path d="M39.529 15.1131C39.5623 14.9865 39.589 14.8498 39.609 14.7031C39.559 14.6231 39.499 14.5431 39.439 14.4531L39.209 14.7531C39.269 14.8831 39.329 15.0031 39.389 15.1331L39.519 15.1131H39.529Z" fill="black"/>
<path d="M13.7591 1.54531C13.6691 1.51531 13.5691 1.47531 13.4791 1.44531C13.3591 1.54531 13.2391 1.65531 13.1191 1.75531L13.2691 1.87531C13.4825 1.80198 13.6491 1.69198 13.7691 1.54531H13.7591Z" fill="black"/>
<path d="M36.5504 23.5497L36.8404 23.1797C36.7904 23.0997 36.7304 23.0197 36.6704 22.9297C36.5771 23.0964 36.4871 23.263 36.4004 23.4297L36.5504 23.5497Z" fill="black"/>
<path d="M36.1402 24.5428L36.2202 24.1328C36.1602 24.1661 36.0969 24.1961 36.0302 24.2228C36.0202 24.2928 36.0002 24.3628 35.9902 24.4328L36.1402 24.5528V24.5428Z" fill="black"/>
<path d="M6.22976 34.7497L6.34977 34.5997L6.12977 34.4297L6.00977 34.5797L6.22976 34.7497Z" fill="black"/>
<path d="M15.7503 24.4928C16.402 24.4928 16.9303 23.9645 16.9303 23.3128C16.9303 22.6611 16.402 22.1328 15.7503 22.1328C15.0986 22.1328 14.5703 22.6611 14.5703 23.3128C14.5703 23.9645 15.0986 24.4928 15.7503 24.4928Z" fill="black"/>
<path d="M20.8988 16.0163C21.5504 16.0163 22.0788 15.4879 22.0788 14.8363C22.0788 14.1846 21.5504 13.6562 20.8988 13.6562C20.2471 13.6562 19.7188 14.1846 19.7188 14.8363C19.7188 15.4879 20.2471 16.0163 20.8988 16.0163Z" fill="black"/>
<path d="M26.0491 24.1725C26.7008 24.1725 27.2291 23.6442 27.2291 22.9925C27.2291 22.3408 26.7008 21.8125 26.0491 21.8125C25.3974 21.8125 24.8691 22.3408 24.8691 22.9925C24.8691 23.6442 25.3974 24.1725 26.0491 24.1725Z" fill="black"/>
</svg>
